<svg xmlns="http://www.w3.org/2000/svg" width="29" height="17" viewBox="-0.983 -3.287 29 17" xmlns:v="https://vecta.io/nano"><path fill="#237df7" d="M27.432 8.031a2.01 2.01 0 0 1-2.005 2.006H2.007A2.01 2.01 0 0 1 0 8.031V2.007A2.01 2.01 0 0 1 2.007 0h23.42a2.01 2.01 0 0 1 2.005 2.007v6.024z"/><path fill="#1c75c8" d="M25.427 0h-12.74l7.353 10.037h5.388a2.01 2.01 0 0 0 2.005-2.006V2.007A2.01 2.01 0 0 0 25.427 0z"/><path d="M6.78 6.834c0 .803-1.012 1.453-2.259 1.453h-.565c-1.248 0-2.261-.65-2.261-1.453V3.202c0-.802 1.013-1.453 2.261-1.453h.565c1.248 0 2.259.65 2.259 1.453v3.632zm9.444 0c0 .803-1.012 1.453-2.259 1.453H13.4c-1.249 0-2.261-.65-2.261-1.453V3.202c0-.802 1.013-1.453 2.261-1.453h.565c1.248 0 2.259.65 2.259 1.453v3.632z" fill="#f5570a"/><path d="M13.965 1.75c1.248 0 2.259.65 2.259 1.453v1.64L13.965 1.75zm11.703 5.084c0 .803-1.012 1.453-2.26 1.453h-.566c-1.247 0-2.26-.65-2.26-1.453V3.202c0-.802 1.013-1.453 2.26-1.453h.566c1.248 0 2.26.65 2.26 1.453v3.632z" fill="#86462d"/></svg>