<?xml version="1.0" encoding="UTF-8" standalone="no"?>
<svg
   version="1.1"
   x="0px"
   y="0px"
   width="29px"
   height="17px"
   viewBox="-0.983 -3.287 29 17"
   id="svg22"
   sodipodi:docname="inherit.svg"
   inkscape:version="1.1.2 (0a00cf5339, 2022-02-04)"
   xmlns:inkscape="http://www.inkscape.org/namespaces/inkscape"
   xmlns:sodipodi="http://sodipodi.sourceforge.net/DTD/sodipodi-0.dtd"
   xmlns="http://www.w3.org/2000/svg"
   xmlns:svg="http://www.w3.org/2000/svg">
  <sodipodi:namedview
     id="namedview24"
     pagecolor="#ffffff"
     bordercolor="#666666"
     borderopacity="1.0"
     inkscape:pageshadow="2"
     inkscape:pageopacity="0.0"
     inkscape:pagecheckerboard="0"
     showgrid="false"
     inkscape:zoom="37.058824"
     inkscape:cx="14.503968"
     inkscape:cy="8.5"
     inkscape:window-width="1920"
     inkscape:window-height="1021"
     inkscape:window-x="0"
     inkscape:window-y="0"
     inkscape:window-maximized="1"
     inkscape:current-layer="svg22" />
  <defs
     id="defs2" />
  <path
     fill="#237df7"
     d="M27.432,8.031c0,1.105-0.899,2.006-2.005,2.006H2.007C0.899,10.037,0,9.137,0,8.031V2.007  C0,0.899,0.899,0,2.007,0h23.42c1.105,0,2.005,0.899,2.005,2.007V8.031z"
     id="path4"
     style="fill:#b3b3b3" />
  <path
     fill="#1c75c8"
     d="M25.427,0h-12.74l7.353,10.037h5.388c1.105,0,2.005-0.9,2.005-2.006V2.007C27.432,0.899,26.533,0,25.427,0z"
     id="path6"
     style="fill:#808080" />
  <path
     fill="#d4d2d1"
     d="M6.78,6.834c0,0.803-1.012,1.453-2.259,1.453H3.956c-1.248,0-2.261-0.65-2.261-1.453V3.202  c0-0.802,1.013-1.453,2.261-1.453h0.565c1.248,0,2.259,0.65,2.259,1.453V6.834z"
     id="path8" />
  <path
     fill="#d4d2d1"
     d="M16.224,6.834c0,0.803-1.012,1.453-2.259,1.453H13.4c-1.249,0-2.261-0.65-2.261-1.453V3.202  c0-0.802,1.013-1.453,2.261-1.453h0.565c1.248,0,2.259,0.65,2.259,1.453V6.834z"
     id="path10" />
  <path
     fill="#989693"
     d="M13.965,1.75c1.248,0,2.259,0.65,2.259,1.453v1.64L13.965,1.75z"
     id="path12" />
  <path
     fill="#989693"
     d="M25.668,6.834c0,0.803-1.012,1.453-2.26,1.453h-0.566c-1.247,0-2.26-0.65-2.26-1.453V3.202  c0-0.802,1.013-1.453,2.26-1.453h0.566c1.248,0,2.26,0.65,2.26,1.453V6.834z"
     id="path14" />
</svg>
