<svg xmlns="http://www.w3.org/2000/svg" width="192.333" height="35.333" viewBox="-2.167 -2.333 192.333 35.333" xmlns:v="https://vecta.io/nano"><path stroke-miterlimit="10" d="M189.666 27.5a5 5 0 0 1-5 5H3.333a5 5 0 0 1-5-5V3.167a5 5 0 0 1 5-5h181.333a5 5 0 0 1 5 5z" fill="#e8e7e6" stroke="#237df7"/><circle cx="167.59" cy="15.534" r="9.757" fill="#237df7"/><path d="M167.856 21.582l5.594-5.594-5.594-5.594 1.028-1.028 6.623 6.622-6.623 6.622z" fill="#d4d2d1"/><path d="M168.884 9.366l-1.028 1.028 5.433 5.432h2.056z" fill="#fff"/><path d="M162.693 21.582l5.594-5.594-5.594-5.594 1.027-1.028 6.624 6.622-6.624 6.622z" fill="#d4d2d1"/><path d="M163.72 9.366l-1.027 1.028 5.433 5.432h2.055z" fill="#fff"/></svg>