<svg xmlns="http://www.w3.org/2000/svg" width="192.333" height="35.333" viewBox="-2.167 -2.333 192.333 35.333" xmlns:v="https://vecta.io/nano"><path stroke-miterlimit="10" d="M189.666 27.5a5 5 0 0 1-5 5H3.333a5 5 0 0 1-5-5V3.167a5 5 0 0 1 5-5h181.333a5 5 0 0 1 5 5z" fill="#e8e7e6" stroke="#fadbb7"/><circle cx="167.59" cy="15.534" r="9.757" fill="#d94b0d"/><path d="M173.45 15.988l-5.594-5.594 1.028-1.028 6.623 6.622-6.623 6.622-1.028-1.028z" fill="#d4d2d1"/><path d="M167.856 10.394l5.433 5.432h2.056l-6.461-6.46z" fill="#fff"/><path d="M168.287 15.988l-5.594-5.594 1.027-1.028 6.624 6.622-6.624 6.622-1.027-1.028z" fill="#d4d2d1"/><path d="M162.693 10.394l5.433 5.432h2.055l-6.461-6.46z" fill="#fff"/></svg>