<?xml version="1.0" encoding="utf-8"?>
<!DOCTYPE svg PUBLIC "-//W3C//DTD SVG 1.1//EN" "http://www.w3.org/Graphics/SVG/1.1/DTD/svg11.dtd" [
	<!ENTITY ns_flows "http://ns.adobe.com/Flows/1.0/">
]>
<svg version="1.1"
	 xmlns="http://www.w3.org/2000/svg" xmlns:xlink="http://www.w3.org/1999/xlink"
	 x="0px" y="0px" width="48px" height="48px" viewBox="-2.667 -3.884 48 48">
<defs>
</defs>
<path fill="#010202" d="M14.586,40.172C8.662,40.139,3.761,28.044,3.761,21.884c0-10.06,7.547-12.262,10.457-12.262
	c1.31,0,2.71,0.515,3.944,0.97c0.864,0.317,1.756,0.646,2.253,0.646c0.297,0,0.998-0.28,1.617-0.524
	c1.318-0.525,2.96-1.177,4.871-1.177c0.003,0,0.007,0,0.01,0c1.427,0,5.755,0.313,8.355,4.219l0.609,0.915l-0.877,0.662
	c-1.253,0.945-3.538,2.67-3.538,6.085c0,4.045,2.589,5.602,3.832,6.35c0.549,0.331,1.117,0.67,1.117,1.415
	c0,0.486-3.882,10.931-9.518,10.931c-1.38,0-2.354-0.416-3.214-0.781c-0.87-0.371-1.621-0.69-2.861-0.69
	c-0.628,0-1.424,0.3-2.266,0.613c-1.15,0.43-2.452,0.917-3.929,0.917H14.586z"/>
<path fill="#010202" d="M27.499,0.366C27.646,5.659,23.86,9.33,20.08,9.1C19.457,4.876,23.86,0.366,27.499,0.366z"/>
</svg>
