<svg xmlns="http://www.w3.org/2000/svg" width="93px" height="93px" viewBox="-3.294 -9.072 93.411 93.411" xmlns:v="https://vecta.io/nano"><path d="M68.873 83.202h6.297c-.01-.27-.023-.547-.107-.816L46.597-7.407c-.418-1.314-1.684-1.99-2.829-1.512l-1.55.646c-1.143.478-1.733 1.931-1.318 3.245zm-30.265-5.061V8.36c0-1.148-.988-2.079-2.204-2.079h-1.649c-1.219 0-2.205.931-2.205 2.079v69.782h6.058zM3.003 83.202l27.97-88.229c.415-1.314-.174-2.767-1.317-3.245l-1.551-.646c-1.145-.478-2.41.2-2.827 1.512L-3.187 82.385c-.085.27-.103.545-.107.816z" fill="#a75812"/><path fill="#d1d3d4" d="M-.668.383h72.496v49.942H-.668z"/><path fill="#e6e7e8" d="M-.668.383l40.355 49.942H-.668z"/><path d="M63.382 47.166H7.777c-1.219 0-2.205 1.129-2.205 2.527v.631h60.014v-.631c-.001-1.398-.985-2.527-2.204-2.527zm0-43.622H7.777c-1.219 0-2.205-1.132-2.205-2.532V.383h60.014v.629c-.001 1.4-.985 2.532-2.204 2.532z" fill="#da7320"/><path fill="#2bb673" d="M18.558 9.1c-3.71 3.955 8.505 9.536 7.898 12.79s-14.583-5.814-15.595-.931 9.519 5.813 10.734 8.371-7.898 2.325-6.886 6.047 7.088-1.163 11.14.931 8.102 6.743 10.127 3.488-2.634-5.348.404-8.373 5.469.233 6.887-1.628-4.458-3.72-5.672-6.976 5.875-3.489 4.659-8.838-5.469 1.395-8.102 1.395S21.394 6.075 18.558 9.1z"/><path fill="#ef4136" d="M50.462 14.478c1.922 3.466-4.408 8.353-4.094 11.205s7.559-5.094 8.082-.815-4.934 5.092-5.563 7.333 4.094 2.037 3.568 5.298-3.674-1.018-5.773.815-4.199 5.907-5.248 3.055 1.364-4.685-.21-7.335-2.835.204-3.569-1.426 2.311-3.259 2.939-6.112-3.045-3.056-2.414-7.742 2.834 1.222 4.198 1.222 6.614-8.147 8.084-5.499z"/><path fill="#7c3e00" d="M32.566 55.856v-5.511h6.037v12.4z"/><g fill="#808285"><ellipse cx="76.815" cy="83.096" rx="10.927" ry="1.24"/><path d="M65.867 81.394h21.895v1.869H65.867z"/></g><ellipse fill="#bcbec0" cx="76.815" cy="81.425" rx="10.927" ry="1.236"/><path fill="#3588a6" d="M79.486 72.551l1.4-12.318c.141-1.272.623-2.23-.162-3.012l5.289-46.348c.127-1.135-.57-2.172-1.561-2.32s-1.898.654-2.031 1.788l-5.287 46.335c-.943.536-.672 2.001-.813 3.285l-1.41 12.319c-.23 2.04.133 2.846 1.916 3.103 1.779.276 2.398-.746 2.633-2.785"/><path fill="#414042" d="M81.297 19.191s.82-.592 1.77-.398 1.912 1.155 1.912 1.155l.615-4.435s-.262-.788-1.777-1.06c-1.391-.249-2.039.647-2.039.647z"/><path fill="#52caf5" d="M81.778 15.101s-.895-3.23-.053-4.959 3.268-2.733 3.012-4.938l2.1 5.972c.643 2.278-1.242 4.337-1.242 4.337s-.477-1.01-1.777-1.06c-1.404-.054-2.04.647-2.04.647z"/><path fill="#414042" d="M85.994 81.224s-3.225.921-9.387.994c-5.836.069-8.965-.959-8.965-.959L63.46 42.15l26.607-.18z"/><ellipse fill="#58595b" cx="76.686" cy="41.949" rx="13.431" ry="1.213"/><path fill="#3588a6" d="M79.099 39.517l-.504 3.678 3.748-.067.326-3.202z"/><path fill="#52caf5" d="M73.857 12.181l.144 30.905-3.894-.089-.012-30.816z"/><path fill="#3588a6" d="M74.816 12.181l.062 30.926-2.607-.067-.076-30.859z"/><path fill="#414042" d="M72.523 4.306l.527 2.181-1.211.122z"/><path fill="#3588a6" d="M81.725 10.142c.838-1.725 3.268-2.733 3.012-4.938l2.1 5.972c.643 2.278-1.242 4.337-1.242 4.337s-.477-1.01-1.777-1.06c0 0 1.648-1.676.461-2.961s-2.554-1.351-2.554-1.351z"/><path d="M84.16 41.138l-.815 1.889-1.002.08.252-2.062zm-7.594-.186l-.75 2.168-.938-.013-.007-2.155z" fill="#414042"/><path fill="#6d6e71" d="M71.955 82.027c-2.828-.281-4.313-.768-4.313-.768L63.46 42.151s.752.329 2.584.576c1.854 15.409 3.791 24.152 5.911 39.3z"/><g fill="#a75812"><ellipse cx="10.038" cy="48.937" rx=".743" ry=".853"/><ellipse cx="62.038" cy="51.381" rx=".743" ry=".781"/></g><path fill="#f1f2f2" d="M-.254.097h72.609l-.527.286H-.668z"/><path fill="#e39948" d="M5.902.079h59.89l-.234.27L5.572.383z"/><path fill="#65bf71" d="M14.936 19.694c-2.107-.429-3.753-.294-4.076 1.264-1.013 4.884 9.519 5.813 10.734 8.371s-7.898 2.325-6.886 6.047 7.088-1.163 11.14.931c1.818.939 3.635 2.391 5.27 3.414z"/><path fill="#e68a20" d="M7.777 47.166c-1.219 0-2.205 1.129-2.205 2.527v.631h34.116l-2.552-3.159z"/><path fill="#c8691c" d="M70.095 12.181l1.744-5.572 1.211-.122 1.766 5.694h-2.621z"/><path fill="#ae5b14" d="M72.195 12.181l.263-5.634.592-.06 1.766 5.694z"/></svg>