<svg xmlns="http://www.w3.org/2000/svg" width="91.193" height="91.193" viewBox="-5.093 -5.872 91.193 91.193" xmlns:v="https://vecta.io/nano"><g fill="#f79523"><path d="M-5.093 52.448l28.788-26.242 3.694 4.152L-1.399 56.6zm40.386-11.471l28.788-26.242 3.447 4.327L38.987 45.13z"/><path d="M42.744 41.612L23.877 26.498l-3.84 3.987 18.735 14.931zm42.415.031L64.486 15.207l-4.429 3.321L80.73 44.965z"/></g><path fill="#3588a6" d="M-1.35 59.7l18.116-16.178V85.19H-1.398z"/><path fill="#52caf5" d="M19.522 41.597l4.473-4.43 13.677 10.655.014 37.367H19.522z"/><path fill="#3588a6" d="M40.442 47.548l18.143-16.582.021 54.224H40.442z"/><g fill="#52caf5"><path d="M61.343 28.616l1.945-1.9 16.237 20.833V85.19H61.359z"/><ellipse cx="23.764" cy="29.809" rx="3.82" ry="3.867"/><ellipse cx="-1.241" cy="52.482" rx="3.82" ry="3.867"/><ellipse cx="38.697" cy="41.41" rx="3.82" ry="3.867"/><ellipse cx="63.874" cy="18.736" rx="3.82" ry="3.867"/><ellipse cx="82.28" cy="42.112" rx="3.82" ry="3.867"/></g><path fill="#f79523" d="M50.365 22.932a1.07 1.07 0 0 1-1.062 1.076H1.558a1.07 1.07 0 0 1-1.063-1.076V-4.796a1.07 1.07 0 0 1 1.063-1.076h47.746a1.07 1.07 0 0 1 1.062 1.076v27.728z"/><path fill="#fcb51e" d="M.495-2.575v25.507a1.07 1.07 0 0 0 1.063 1.076h27.044C23.691 11.188 13.322 1.281.495-2.575z"/><path fill="#f5f5f5" d="M5.703.102h40.111v1.582H5.703z"/><path d="M5.703 6.555h24.136v1.582H5.703zm0 6.453h24.136v1.582H5.703zm30.002-6.453h10.071v1.582H35.705zm0 6.453h10.071v1.582H35.705z" fill="#a75812"/><path d="M22.54 13.008H5.703v1.582H23.66l-1.12-1.582zM5.703 6.555v1.582h12.593l-1.671-1.582z" fill="#c8691c"/></svg>