<svg xmlns="http://www.w3.org/2000/svg" width="46.902" height="46.902" viewBox="-0.317 -0.62 46.902 46.902" xmlns:v="https://vecta.io/nano"><path fill="#52caf5" d="M25.17 45.438a2.88 2.88 0 0 1-4.072 0L.527 24.867a2.88 2.88 0 0 1 0-4.074L21.098.223a2.88 2.88 0 0 1 4.072 0l20.571 20.571c1.125 1.125 1.124 2.949 0 4.074z"/><path fill="#37acd4" d="M9.693 13.038l-1.447.037-7.719 7.719a2.88 2.88 0 0 0 0 4.074l20.571 20.57a2.88 2.88 0 0 0 4.072 0l11.947-11.946C33.604 21.666 22.659 13.038 9.693 13.038z"/><g fill="#fff"><path d="M17.763 9.561a1.06 1.06 0 0 0-1.049-1.067h-1.818a1.06 1.06 0 0 0-1.049 1.067 1.07 1.07 0 0 0 .51.911v13.151c0 .41.128.794.359 1.095v12.691c0 .589.479 1.066 1.067 1.066s1.067-.478 1.067-1.066V24.831c.29-.31.459-.746.459-1.208V11.187l-.422-.15-1.211-.408h1.038a1.06 1.06 0 0 0 1.049-1.068z"/><path d="M38.196 16.556c-.03-.001-3.029-.101-4.488-.442-1.198-.281-3.414-1.947-4.879-3.049l-.678-.506c-1.438-1.063-3.177-2.25-5.649-2.885-.706-.182-1.558-.274-2.53-.274-1.724 0-3.245.286-3.309.297l-.517.099v15.408l1.018-.767c.504-.379 3.123-2.146 4.216-2.853.981-.634 1.574-1.019 4.198-1.276 1.088-.103 2.445-.026 3.699.068l2.439.121a11.26 11.26 0 0 0 1.785-.128c2.614-.418 5.007-2.621 5.107-2.713l1.131-1.052z"/></g><g fill="#f79523"><path d="M16.674 23.623c0 .571-.375 1.036-.841 1.036h0c-.464 0-.841-.465-.841-1.036V10.855c0-.572.376-1.035.841-1.035h0c.466 0 .841.463.841 1.035z"/><path d="M17.127 9.561c0 .239-.185.432-.414.432h-1.818c-.228 0-.413-.193-.413-.432h0c0-.237.185-.431.413-.431h1.818c.229 0 .414.193.414.431z"/></g><path d="M16.214 37.409c0 .237-.193.432-.431.432h0a.43.43 0 0 1-.431-.432V14.144a.43.43 0 0 1 .431-.431h0a.43.43 0 0 1 .431.431zm.399-27.021s3.271-.622 5.562-.032 3.924 1.669 5.43 2.781 4.252 3.304 5.79 3.663 4.611.458 4.611.458-2.321 2.159-4.774 2.551-5.202-.327-7.885-.066-3.37.655-4.482 1.375l-4.252 2.88z" fill="#c8691c"/><path fill="#f79523" d="M28.33 19.688c1.355.101 3.757.281 5.071.055 2.448-.421 4.775-2.551 4.775-2.551s-3.075-.099-4.613-.458-4.285-2.551-5.79-3.663-3.14-2.191-5.429-2.781-5.731.028-5.731.028l-.004 3.406c4.82 1.736 8.179 2.403 11.721 5.964z"/><path fill="#c8691c" d="M14.992 13.203v10.42c0 .571.376 1.036.841 1.036s.841-.465.841-1.036v-9.864l-1.682-.556z"/></svg>