<svg xmlns="http://www.w3.org/2000/svg" width="44.555" height="44.555" viewBox="-1.833 -9.522 44.555 44.555" xmlns:v="https://vecta.io/nano"><path d="M-1.174-9.06h43.293v26.509H-1.174z" fill="#d1d3d4"/><path d="M-1.174-9.06v26.509h29.161L14.132-9.06z" fill="#e6e7e8"/><path d="M42.077-9.779H-1.189c-.355 0-.644.288-.644.644v27.269c0 .355.289.645.644.645h2.792v1.61c0 .356.289.644.644.644H38.64c.357 0 .646-.287.646-.644v-1.61h2.792c.356 0 .644-.289.644-.645V-9.135c-.002-.356-.289-.644-.645-.644zm-.593 26.571a.64.64 0 0 1-.643.643H.046c-.355 0-.645-.287-.645-.643V-7.793c0-.355.289-.644.645-.644h40.795c.356 0 .643.289.643.644z" fill="#3588a6"/><path d="M-1.833-9.135v27.269c0 .355.289.645.644.645h2.792v1.61c0 .356.289.644.644.644h27.611l-1.88-3.598H.046c-.355 0-.645-.287-.645-.643V-7.793c0-.355.289-.644.645-.644h14.413l-.703-1.342H-1.189c-.355 0-.644.288-.644.644z" fill="#3b92b2"/><path d="M18.875 29.482c1.212.432 1.619 2.171-.229 2.566-1.417.305-5.273 0-3.701 2.908h.393c-1.736-2.567 1.9-2.258 3.603-2.66 1.837-.435 1.536-2.484.052-3.06zM4.078 24.927c.61-1.801 1.517-2.299 1.655-2.365a3.52 3.52 0 0 0-1.651-1.063c-1.857-.562-3.845.404-4.44 2.157s.428 3.631 2.285 4.193a3.7 3.7 0 0 0 1.997.042c-.075-.124-.516-.986.155-2.964z" fill="#c8691c"/><g fill="#f79523"><path d="M15.942 29.018c0-.547.417-.999.967-1.095L6.682 22.743s-1.012.422-1.675 2.375c-.729 2.149-.144 2.984-.144 2.984l11.276 1.659.039-.082c-.147-.184-.236-.412-.236-.66z"/><ellipse transform="matrix(.974183 .225759 -.251445 .967872 0 0)" cx="24.235" cy="24.29" rx=".718" ry=".813"/><path d="M17.443 29.275l.233-.64 1.383.448-.233.64z"/></g><g fill="#6aabc7"><path d="M28.459-2.198l-5.513-3.878-.098 6.662zm.727 1.846l3.98 9.929-3.45 1.806-5.837-9.103z"/><path d="M33.532 15.567l-2.941-5.469.757-.376 2.941 5.469z"/></g><path d="M36.825.783l-2.7-4.541L31.92.974zm-.072 1.552l-.334 8.377-3.046.184-1.258-8.379z" fill="#eeb11e"/><path d="M34.762 15.11l-.351-4.851.662-.027.35 4.853z" fill="#f79523"/><path d="M6.448 4.971l1.731-.266L9.91 7.993 8.513 9.222z" fill="#3588a6"/><path d="M13.888 1.749L3.41 3.509l4.829 9.433 6.773-8.968zM8.513 9.222L6.448 4.971l6.499-1.129z" fill="#f79523"/><path d="M13.888 1.749L3.41 3.509l2.339-1.162 8.99-1.528z" fill="#84d5f7"/><path d="M13.888 1.749l.85-.93 1.124 1.893-.85 1.229z" fill="#52caf5"/><path d="M25.596 25.867l.448.806 7.785-3.61-.232-.822z" fill="#a0530f"/><path d="M25.743 25.989s.673.092 1.165.329c.272.131.672.516.672.516l.096 1.16-1.728-.258z" fill="#6d6e71"/><path d="M25.742 25.991s.673.089 1.006.295l.832.548 9.321-2.74s-.896-.258-1.452-.528c-.006-.01-.392.114-.392.114l-.1-.422-1.097-.711z" fill="#d1d3d4"/><path d="M27.58 26.834l1.185 7.606 9.065-2.901-.928-7.444z" fill="#f79523"/><path d="M35.062 23.68l-7.29 2.187 7.186-2.617z" fill="#a7a9ac"/><path d="M28.573 24.094l-1.089-.419-.192 1.064.48 1.128 1.39-.413zm-.628.589a.25.25 0 0 1-.099-.021c-.085-.038-.145-.124-.145-.224 0-.136.109-.246.244-.246s.243.11.243.246-.109.245-.243.245z" fill="#52caf5"/><path d="M26.78 27.156c-.188-.556-.037-1.313.352-1.741.232-.255.696-1.147 1.041-.883-.638.779-1.437 1.426-1.168 2.527" fill="#414042"/><path d="M25.596 25.867s.509.646 1.249.902c.337.117.736.065.736.065l1.185 7.606s-.634.073-.961-.161c-.687-.494-.8-.87-.8-.87z" fill="#3f8490"/><path d="M27.459 23.827l.486.365s.074.047-.036.206c-.091.131-.197.055-.197.055l-.457-.341s-.087-.072-.024-.199c.072-.144.229-.087.229-.087z" fill="#414042"/><path d="M27.58 26.834l1.185 7.606 1.221-.388-1.193-7.576z" fill="#52caf5"/><path d="M26.141 28.748s.19.409.719.6c.378.136 1.14.151 1.14.151l.284 1.897s-.665.082-1.248-.163c-.47-.198-.542-.519-.542-.519z" fill="#2b626b"/><path d="M29.203 29.17l.291 1.852-1.211.373-.284-1.897zm-1.431-3.303l1.289-.638.096.224z" fill="#3f8490"/></svg>