<svg xmlns="http://www.w3.org/2000/svg" width="89.039" height="89.039" xmlns:v="https://vecta.io/nano"><path d="M9.54 9.541h15.9V38.16H9.54zm38.158 44.518h19.081v22.258H47.698zm38.159 23.848a1.59 1.59 0 0 1-3.181 0V7.951h-3.18v69.956a1.59 1.59 0 0 1-3.18 0V.001H0v81.085a7.96 7.96 0 0 0 7.95 7.949h73.136a7.96 7.96 0 0 0 7.949-7.949V7.951h-3.18zM6.361 7.951A1.59 1.59 0 0 1 7.95 6.36h.001 19.08a1.59 1.59 0 0 1 1.59 1.59v.001 31.798a1.59 1.59 0 0 1-1.59 1.59h0-19.08a1.59 1.59 0 0 1-1.59-1.589zM20.67 73.137H7.952a1.591 1.591 0 0 1 0-3.182h12.719a1.59 1.59 0 0 1 1.591 1.59c-.002.879-.714 1.592-1.592 1.592zm0-6.359H7.952a1.591 1.591 0 0 1 0-3.182h12.719a1.59 1.59 0 0 1 1.591 1.592c-.002.877-.714 1.59-1.592 1.59zm0-6.362H7.952a1.59 1.59 0 0 1 0-3.18h12.719a1.59 1.59 0 1 1-.001 3.18zm0-6.357H7.952a1.591 1.591 0 0 1 0-3.182h12.719a1.59 1.59 0 0 1 1.591 1.59c-.002.879-.714 1.592-1.592 1.592zm19.079 19.078H27.031a1.591 1.591 0 0 1 0-3.182H39.75a1.59 1.59 0 0 1 1.591 1.59c-.003.879-.714 1.592-1.592 1.592zm0-6.359H27.031a1.591 1.591 0 0 1 0-3.182H39.75a1.59 1.59 0 0 1 1.591 1.592c-.003.877-.714 1.59-1.592 1.59zm0-6.362H27.031a1.59 1.59 0 0 1 0-3.18H39.75a1.59 1.59 0 1 1-.001 3.18zm0-6.357H27.031a1.591 1.591 0 0 1 0-3.182H39.75a1.59 1.59 0 0 1 1.591 1.59c-.003.879-.714 1.592-1.592 1.592zm30.209 23.848a1.59 1.59 0 0 1-1.59 1.59h0-22.26c-.876 0-1.59-.713-1.59-1.59h0v-25.44a1.59 1.59 0 0 1 1.59-1.59h0 22.26a1.59 1.59 0 0 1 1.59 1.59h0zm-1.589-36.568H36.57a1.59 1.59 0 0 1 0-3.18h31.799a1.59 1.59 0 0 1 0 3.18zm0-6.36H36.57a1.59 1.59 0 0 1 0-3.18h31.799a1.59 1.59 0 0 1 0 3.18zm0-6.359H36.57a1.59 1.59 0 1 1 0-3.18h31.799a1.59 1.59 0 1 1 0 3.18zm0-6.36H36.57a1.59 1.59 0 0 1 0-3.18h31.799a1.59 1.59 0 1 1 0 3.18zm0-6.361H36.57a1.59 1.59 0 0 1 0-3.18h31.799a1.59 1.59 0 1 1 0 3.18zm0-6.358H36.57a1.59 1.59 0 0 1-1.59-1.589 1.59 1.59 0 0 1 1.59-1.59h31.799a1.59 1.59 0 0 1 1.59 1.59 1.59 1.59 0 0 1-1.59 1.589z" fill="#fcb51e"/><path d="M66.6 76.317V54.059H51.263c-.641 4.947-1.911 9.697-3.744 14.164v8.094zM85.678 7.951v69.956a1.591 1.591 0 0 1-3.182 0V7.951h-3.178v69.956a1.59 1.59 0 0 1-3.18 0V0H27.056a56.89 56.89 0 0 1 8.21 6.825c.288-.288.685-.466 1.124-.466h31.799a1.59 1.59 0 1 1 0 3.18H37.781a56.62 56.62 0 0 1 2.596 3.179H68.19a1.591 1.591 0 0 1 0 3.181H42.595l1.928 3.18H68.19a1.59 1.59 0 1 1 0 3.18H46.192l1.396 3.182h20.604a1.59 1.59 0 0 1 1.59 1.588 1.59 1.59 0 0 1-1.59 1.591H48.768a55.67 55.67 0 0 1 .973 3.18h18.45a1.591 1.591 0 0 1 0 3.181H50.518a56.05 56.05 0 0 1 .585 3.18h17.088a1.59 1.59 0 0 1 1.59 1.59 1.59 1.59 0 0 1-1.59 1.589H51.487l.264 5.407-.167 4.135h16.607a1.59 1.59 0 0 1 1.59 1.59V77.91a1.59 1.59 0 0 1-1.59 1.59h-22.26a1.59 1.59 0 0 1-1.591-1.59v-3.18c-3.069 5.385-6.992 10.215-11.593 14.309h48.162a7.96 7.96 0 0 0 7.949-7.949V7.951z" fill="#f79523"/></svg>