<svg xmlns="http://www.w3.org/2000/svg" width="90.272" height="90.272" viewBox="-22.416 -4.864 90.272 90.272" xmlns:v="https://vecta.io/nano"><path d="M20.833 21.885v-.247c-.018-.267.213-.551.515-.632l1.027-.274a.57.57 0 0 0 .4-.696l-.514-1.917a.57.57 0 0 0-.694-.402l-1.025.276c-.301.081-.671-.078-.822-.351l-.588-.924c-.185-.252-.171-.653.029-.893l.684-.813a.57.57 0 0 0-.07-.799l-1.521-1.277a.57.57 0 0 0-.8.069l-.683.815c-.201.239-.596.326-.878.195l-1.745-.633a.79.79 0 0 1-.548-.716v-1.063a.57.57 0 0 0-.567-.568h-1.985a.57.57 0 0 0-.567.568v1.063c0 .311-.247.628-.55.703l-1.047.327c-.291.113-.676-.003-.855-.259l-.608-.87a.57.57 0 0 0-.79-.139l-1.626 1.139a.57.57 0 0 0-.139.789l.609.87c.178.255.157.656-.048.892l-.667.87c-.173.259-.556.383-.85.276l-.998-.363a.57.57 0 0 0-.728.339l-.678 1.866a.57.57 0 0 0 .339.728l.998.363a.74.74 0 0 1 .459.756s-.055.421-.055.931v.246c.018.268-.214.552-.515.633l-1.027.275a.57.57 0 0 0-.402.695l.515 1.918a.57.57 0 0 0 .695.401l1.024-.275c.302-.08.671.076.822.349l.589.925c.185.251.171.654-.029.893l-.682.813a.57.57 0 0 0 .07.799l1.521 1.276a.57.57 0 0 0 .799-.071l.683-.813a.78.78 0 0 1 .878-.194l1.745.631a.79.79 0 0 1 .547.717v1.062a.57.57 0 0 0 .567.567h1.985a.57.57 0 0 0 .567-.567v-1.062c0-.313.248-.629.551-.704l1.045-.328a.76.76 0 0 1 .854.261l.609.869a.57.57 0 0 0 .79.139l1.626-1.139a.57.57 0 0 0 .14-.791l-.609-.869c-.18-.256-.158-.657.047-.893l.667-.87c.174-.259.556-.384.849-.276l.999.363a.57.57 0 0 0 .728-.339l.678-1.866a.57.57 0 0 0-.338-.727l-.999-.363c-.293-.108-.5-.447-.459-.756a7.76 7.76 0 0 0 .056-.928zm-8.793 6.466a6.47 6.47 0 0 1-6.467-6.467 6.47 6.47 0 0 1 6.467-6.467 6.47 6.47 0 0 1 6.466 6.467 6.47 6.47 0 0 1-6.466 6.467zm15.75 16.937v-.182c-.016-.193.154-.4.373-.461l.748-.199c.221-.059.353-.285.294-.506l-.374-1.396c-.06-.219-.287-.352-.506-.293l-.748.201a.56.56 0 0 1-.6-.256l-.428-.674c-.134-.182-.125-.474.021-.649l.498-.591c.146-.176.123-.437-.051-.584l-1.109-.93c-.173-.145-.436-.122-.581.051l-.499.594a.57.57 0 0 1-.639.142l-1.271-.461c-.22-.059-.399-.295-.399-.521v-.774c0-.228-.186-.413-.413-.413H20.66c-.228 0-.413.186-.413.413v.774a.56.56 0 0 1-.401.512l-.762.238c-.212.082-.493-.002-.623-.188l-.444-.634c-.13-.186-.39-.232-.576-.102l-1.184.831c-.187.131-.232.39-.102.576l.445.634a.56.56 0 0 1-.036.65l-.485.633c-.127.189-.405.279-.619.201l-.728-.266c-.213-.076-.451.033-.529.248l-.495 1.359c-.078.213.033.451.247.529l.727.266c.213.076.365.324.334.551 0 0-.04.307-.04.678v.18c.012.195-.156.4-.375.459l-.749.201c-.219.059-.351.287-.293.508l.375 1.396c.06.219.287.352.506.291l.747-.197c.219-.061.488.055.598.252l.429.674c.134.184.125.475-.021.65l-.498.592c-.146.176-.123.438.051.582l1.107.932c.174.145.437.123.583-.051l.497-.594c.146-.174.434-.238.64-.143l1.272.461c.219.061.399.295.399.521v.775c0 .227.185.412.413.412h1.446c.228 0 .413-.186.413-.412v-.775a.56.56 0 0 1 .402-.512l.76-.238a.56.56 0 0 1 .623.188l.443.635c.13.188.389.232.575.102l1.185-.83c.187-.129.231-.389.101-.576l-.441-.633c-.131-.186-.116-.479.034-.648l.485-.635a.56.56 0 0 1 .619-.201l.727.264c.214.078.452-.033.53-.246l.493-1.361a.41.41 0 0 0-.245-.527l-.723-.269a.54.54 0 0 1-.335-.551c0 .001.041-.306.041-.677zm-6.406 4.711a4.711 4.711 0 1 1 0-9.422 4.711 4.711 0 1 1 0 9.422z" fill="#f79523"/><path d="M34.692 31.382v-.173c-.012-.187.15-.385.361-.443l.718-.192c.213-.057.338-.275.282-.486l-.36-1.343a.4.4 0 0 0-.485-.281l-.718.192c-.211.058-.47-.053-.576-.245l-.411-.647c-.129-.177-.121-.457.021-.625l.478-.569c.141-.168.119-.419-.049-.56l-1.065-.894c-.167-.14-.419-.119-.559.049l-.479.57a.55.55 0 0 1-.615.136l-1.223-.442c-.209-.057-.383-.283-.383-.501v-.744c0-.218-.179-.396-.396-.396h-1.39c-.22 0-.398.178-.398.396v.744c0 .219-.173.44-.384.493l-.732.229a.53.53 0 0 1-.598-.182l-.428-.608c-.124-.179-.373-.224-.552-.098l-1.139.797a.4.4 0 0 0-.098.554l.426.608c.126.179.111.46-.033.625l-.467.608c-.121.182-.388.269-.594.194l-.698-.255a.4.4 0 0 0-.509.237l-.476 1.306a.4.4 0 0 0 .237.509l.699.254c.204.074.349.314.322.53 0 0-.039.295-.039.652v.173c.012.187-.149.386-.361.442l-.719.192c-.211.057-.337.275-.28.486l.359 1.343a.4.4 0 0 0 .485.281l.717-.192a.54.54 0 0 1 .577.245l.411.647c.13.176.12.458-.021.625l-.477.569c-.14.167-.119.419.05.559l1.063.893a.4.4 0 0 0 .561-.049l.477-.569a.55.55 0 0 1 .615-.136l1.222.442c.21.058.382.284.382.502v.745c0 .218.179.396.398.396h1.39c.218 0 .396-.178.396-.396v-.743a.54.54 0 0 1 .386-.493l.732-.229a.53.53 0 0 1 .598.182l.427.607c.124.18.375.224.553.099l1.139-.798c.18-.125.223-.375.098-.553l-.426-.609c-.126-.18-.111-.46.033-.624l.466-.609c.123-.183.39-.269.595-.194l.699.254a.4.4 0 0 0 .51-.236l.474-1.307c.076-.205-.032-.434-.236-.509l-.699-.254c-.205-.075-.35-.313-.32-.529-.001 0 .036-.295.036-.652zm-6.155 4.527c-2.5 0-4.526-2.027-4.526-4.527a4.53 4.53 0 0 1 4.526-4.528 4.53 4.53 0 0 1 4.527 4.528 4.53 4.53 0 0 1-4.527 4.527zm5.041-20.796v-.145c-.011-.155.125-.321.301-.368l.599-.16c.176-.047.28-.229.233-.406l-.299-1.116c-.048-.176-.23-.281-.405-.234l-.598.161c-.175.047-.392-.045-.479-.204l-.344-.539c-.107-.146-.1-.381.017-.52l.398-.474c.117-.14.099-.349-.04-.466l-.887-.743c-.14-.117-.348-.098-.466.04l-.397.475a.46.46 0 0 1-.513.113l-1.017-.369a.46.46 0 0 1-.319-.417v-.62a.33.33 0 0 0-.33-.331h-1.157a.33.33 0 0 0-.33.331v.62a.45.45 0 0 1-.321.41l-.609.19c-.169.065-.393-.001-.497-.151l-.355-.506c-.104-.149-.311-.185-.461-.082l-.947.664c-.147.104-.186.313-.081.46l.356.508c.104.148.091.382-.029.519l-.389.507c-.101.151-.324.224-.493.162l-.582-.212c-.171-.062-.362.027-.424.197l-.396 1.087a.33.33 0 0 0 .198.423l.581.212a.43.43 0 0 1 .268.44s-.032.246-.032.543v.143c.012.156-.123.321-.299.369l-.599.16c-.176.047-.28.23-.233.406l.299 1.117c.048.176.229.28.405.234l.596-.161c.177-.047.391.044.479.203l.343.539c.107.146.101.381-.017.52l-.398.475a.33.33 0 0 0 .041.465l.886.743c.141.117.35.099.466-.04l.399-.474c.115-.14.346-.191.512-.114l1.016.369c.176.047.319.235.319.417v.62a.33.33 0 0 0 .33.331h1.157a.33.33 0 0 0 .33-.331v-.62c0-.181.146-.366.322-.409l.608-.191c.17-.065.393.002.497.152l.355.506c.104.149.311.185.461.081l.946-.663c.149-.105.187-.313.082-.461l-.355-.507c-.104-.149-.092-.382.028-.52l.39-.507c.101-.151.322-.223.494-.161l.581.211c.171.063.361-.027.424-.198l.396-1.086c.063-.171-.027-.361-.196-.424l-.583-.211a.44.44 0 0 1-.268-.441 4.67 4.67 0 0 0 .032-.541zm-5.122 3.768a3.77 3.77 0 0 1-3.77-3.768 3.77 3.77 0 0 1 3.77-3.769 3.77 3.77 0 0 1 3.767 3.769 3.77 3.77 0 0 1-3.767 3.768z" fill="#c8691c"/><path fill="#f79523" d="M42.708 22.333v-.121c-.01-.131.104-.271.254-.31l.503-.136a.28.28 0 0 0 .199-.342l-.253-.942a.28.28 0 0 0-.341-.197l-.505.134c-.147.041-.33-.037-.404-.171l-.289-.454c-.091-.124-.082-.321.016-.438l.336-.399a.28.28 0 0 0-.036-.394l-.747-.627a.28.28 0 0 0-.392.035l-.336.4a.39.39 0 0 1-.433.096l-.857-.312a.39.39 0 0 1-.27-.352v-.522c0-.153-.123-.279-.278-.279h-.976a.28.28 0 0 0-.278.279v.522c0 .153-.122.309-.27.346l-.516.161c-.142.055-.331-.002-.42-.127l-.3-.428a.28.28 0 0 0-.388-.068l-.799.56c-.126.087-.156.263-.067.388l.298.428c.089.126.078.322-.023.438l-.327.427c-.085.127-.272.188-.417.136l-.491-.179c-.143-.052-.303.022-.358.167l-.333.917a.28.28 0 0 0 .168.357l.489.179c.146.052.247.22.227.372 0 0-.026.207-.026.457v.121c.009.132-.105.271-.254.311l-.506.135a.28.28 0 0 0-.195.342l.251.942c.041.148.194.236.343.198l.503-.135c.148-.04.33.037.404.172l.289.453a.38.38 0 0 1-.014.44l-.335.399a.28.28 0 0 0 .033.393l.747.627a.28.28 0 0 0 .393-.035l.335-.399c.1-.118.295-.161.433-.096l.858.311a.39.39 0 0 1 .269.352v.522a.28.28 0 0 0 .278.279h.976c.155 0 .278-.126.278-.279v-.522c0-.153.123-.31.271-.346l.514-.161c.144-.056.333.002.42.127l.299.427c.089.126.264.156.391.069l.799-.559c.124-.089.156-.264.067-.389l-.299-.428c-.087-.125-.078-.322.023-.438l.328-.427c.084-.128.272-.188.417-.136l.49.178c.144.054.305-.022.356-.167l.336-.917a.28.28 0 0 0-.168-.358l-.49-.177c-.145-.054-.246-.221-.226-.373-.001.001.026-.207.026-.457zm-4.321 3.178a3.18 3.18 0 0 1-3.178-3.178 3.18 3.18 0 0 1 3.178-3.178 3.18 3.18 0 0 1 3.178 3.178 3.18 3.18 0 0 1-3.178 3.178z"/><path fill="#52caf5" d="M49.648 22.168C49.398 7.241 37.545-4.864 22.617-4.864c-.188 0-.368.023-.556.028-.181-.005-.359-.028-.541-.028-14.93 0-26.783 12.105-27.033 27.032-.196 11.767 8.262 17.834 13.234 27.514 2.933 5.711 2.667 12.021 2.667 12.021 0 .471.569.854 1.272.854l1.869-.063c.252-5.859-.714-11.693-3.454-17.188C6.018 37.169-1.149 32.147-.984 22.311-.775 9.836 9.131-.282 21.609-.282c.154 0 .303.019.453.023.158-.004.308-.024.464-.024 12.479 0 22.384 10.118 22.593 22.593.166 9.835-6.315 15.237-11.062 22.997-2.738 4.48-3.372 11.059-3.494 17.25h1.911c.702 0 1.271-.383 1.271-.855 0 0-.267-6.309 2.668-12.02 4.972-9.681 13.433-15.747 13.235-27.514z"/><path d="M34.148 73.325a1.27 1.27 0 0 1-1.271 1.271H11.819a1.27 1.27 0 0 1-1.272-1.271v-.568a1.27 1.27 0 0 1 1.272-1.271h21.057a1.27 1.27 0 0 1 1.271 1.271v.568zm0-5.408a1.27 1.27 0 0 1-1.271 1.273H11.819c-.703 0-1.272-.57-1.272-1.273v-.568a1.27 1.27 0 0 1 1.272-1.271h21.057a1.27 1.27 0 0 1 1.271 1.271v.568zm-1.061 10.812a1.27 1.27 0 0 1-1.273 1.273H12.881c-.702 0-1.271-.57-1.271-1.273v-.568a1.27 1.27 0 0 1 1.271-1.271h18.932a1.27 1.27 0 0 1 1.273 1.271v.568zm-2.754 5.408a1.27 1.27 0 0 1-1.272 1.271H15.635c-.702 0-1.272-.57-1.272-1.271v-.568a1.27 1.27 0 0 1 1.272-1.271H29.06a1.27 1.27 0 0 1 1.272 1.271v.568z" fill="#3588a6"/></svg>