<svg xmlns="http://www.w3.org/2000/svg" width="419.336" height="21.886" viewBox="-12.333 -3.833 419.336 21.886" preserveAspectRatio="none" xmlns:v="https://vecta.io/nano"><path d="M-12.333 18.053H-.389l-11.02-21.886h-.924zm25.3 0h14.889L16.836-3.833H2.449zm28.244 0H56.1L45.082-3.833H30.693zm28.246 0h14.888L73.327-3.833H58.939zm28.245 0h14.888L101.572-3.833H87.184zm28.245 0h14.888L129.817-3.833H115.43zm28.245 0h14.889L158.062-3.833h-14.388zm28.245 0h14.889L186.308-3.833h-14.389zm28.245 0h14.889L214.552-3.833h-14.387zm28.246 0h14.887L242.797-3.833H228.41zm28.244 0h14.889L271.042-3.833h-14.388zm28.246 0h14.888L299.287-3.833h-14.388zm28.245 0h14.887L327.532-3.833h-14.387zm28.244 0h14.888L355.777-3.833h-14.388zm28.245 0h14.888L384.023-3.833h-14.389zM397.88-3.833l9.123 18.983V-3.833z" fill="#914900"/></svg>