<?xml version="1.0" encoding="UTF-8" standalone="no"?>
<svg
   xmlns:dc="http://purl.org/dc/elements/1.1/"
   xmlns:cc="http://creativecommons.org/ns#"
   xmlns:rdf="http://www.w3.org/1999/02/22-rdf-syntax-ns#"
   xmlns:svg="http://www.w3.org/2000/svg"
   xmlns="http://www.w3.org/2000/svg"
   xmlns:sodipodi="http://sodipodi.sourceforge.net/DTD/sodipodi-0.dtd"
   xmlns:inkscape="http://www.inkscape.org/namespaces/inkscape"
   version="1.1"
   x="0px"
   y="0px"
   width="420"
   height="34"
   viewBox="-12.333 -3.833 420 34"
   preserveAspectRatio="none"
   id="svg38"
   sodipodi:docname="news_header.svg"
   inkscape:version="0.92.5 (2060ec1f9f, 2020-04-08)">
  <metadata
     id="metadata42">
    <rdf:RDF>
      <cc:Work
         rdf:about="">
        <dc:format>image/svg+xml</dc:format>
        <dc:type
           rdf:resource="http://purl.org/dc/dcmitype/StillImage" />
        <dc:title></dc:title>
      </cc:Work>
    </rdf:RDF>
  </metadata>
  <sodipodi:namedview
     pagecolor="#ffffff"
     bordercolor="#666666"
     borderopacity="1"
     objecttolerance="10"
     gridtolerance="10"
     guidetolerance="10"
     inkscape:pageopacity="0"
     inkscape:pageshadow="2"
     inkscape:window-width="1879"
     inkscape:window-height="982"
     id="namedview40"
     showgrid="false"
     inkscape:zoom="8.092092"
     inkscape:cx="32.788983"
     inkscape:cy="-9.8254213"
     inkscape:window-x="48"
     inkscape:window-y="27"
     inkscape:window-maximized="0"
     inkscape:current-layer="svg38" />
  <defs
     id="defs2" />
  <path
     d="m 407.667,57.182529 c 0,1.648423 -1.33876,2.984471 -2.9905,2.984471 H -9.3424984 C -10.994252,60.167 -12.333,58.830952 -12.333,57.182529 V 26.675262 c 0,-1.647429 1.338748,-2.984472 2.9905016,-2.984472 H 404.67551 c 1.65175,0 2.99049,1.337043 2.99049,2.984472 v 30.507267 z"
     id="path4"
     inkscape:connector-curvature="0"
     style="fill:#f79523;stroke-width:0.99582833" />
  <polygon
     points="0,22 11.991,22 0.928,0 0,0 "
     id="polygon6"
     transform="matrix(0.99604664,0,0,0.99482381,-12.333,-3.833)"
     style="fill:#914900;fill-opacity:1" />
  <polygon
     points="25.4,22 40.348,22 29.285,0 14.841,0 "
     id="polygon8"
     transform="matrix(0.99604664,0,0,0.99482381,-12.333,-3.833)"
     style="fill:#914900;fill-opacity:1" />
  <polygon
     points="53.757,22 68.705,22 57.643,0 43.197,0 "
     id="polygon10"
     transform="matrix(0.99604664,0,0,0.99482381,-12.333,-3.833)"
     style="fill:#914900;fill-opacity:1" />
  <polygon
     points="82.115,22 97.062,22 86,0 71.555,0 "
     id="polygon12"
     transform="matrix(0.99604664,0,0,0.99482381,-12.333,-3.833)"
     style="fill:#914900;fill-opacity:1" />
  <polygon
     points="110.472,22 125.419,22 114.357,0 99.912,0 "
     id="polygon14"
     transform="matrix(0.99604664,0,0,0.99482381,-12.333,-3.833)"
     style="fill:#914900;fill-opacity:1" />
  <polygon
     points="138.829,22 153.776,22 142.714,0 128.27,0 "
     id="polygon16"
     transform="matrix(0.99604664,0,0,0.99482381,-12.333,-3.833)"
     style="fill:#914900;fill-opacity:1" />
  <polygon
     points="167.186,22 182.134,22 171.071,0 156.626,0 "
     id="polygon18"
     transform="matrix(0.99604664,0,0,0.99482381,-12.333,-3.833)"
     style="fill:#914900;fill-opacity:1" />
  <polygon
     points="195.543,22 210.491,22 199.429,0 184.983,0 "
     id="polygon20"
     transform="matrix(0.99604664,0,0,0.99482381,-12.333,-3.833)"
     style="fill:#914900;fill-opacity:1" />
  <polygon
     points="223.9,22 238.848,22 227.785,0 213.341,0 "
     id="polygon22"
     transform="matrix(0.99604664,0,0,0.99482381,-12.333,-3.833)"
     style="fill:#914900;fill-opacity:1" />
  <polygon
     points="252.258,22 267.204,22 256.143,0 241.698,0 "
     id="polygon24"
     transform="matrix(0.99604664,0,0,0.99482381,-12.333,-3.833)"
     style="fill:#914900;fill-opacity:1" />
  <polygon
     points="280.614,22 295.562,22 284.5,0 270.055,0 "
     id="polygon26"
     transform="matrix(0.99604664,0,0,0.99482381,-12.333,-3.833)"
     style="fill:#914900;fill-opacity:1" />
  <polygon
     points="308.972,22 323.919,22 312.857,0 298.412,0 "
     id="polygon28"
     transform="matrix(0.99604664,0,0,0.99482381,-12.333,-3.833)"
     style="fill:#914900;fill-opacity:1" />
  <polygon
     points="337.329,22 352.275,22 341.214,0 326.77,0 "
     id="polygon30"
     transform="matrix(0.99604664,0,0,0.99482381,-12.333,-3.833)"
     style="fill:#914900;fill-opacity:1" />
  <polygon
     points="365.686,22 380.633,22 369.571,0 355.126,0 "
     id="polygon32"
     transform="matrix(0.99604664,0,0,0.99482381,-12.333,-3.833)"
     style="fill:#914900;fill-opacity:1" />
  <polygon
     points="394.043,22 408.99,22 397.929,0 383.483,0 "
     id="polygon34"
     transform="matrix(0.99604664,0,0,0.99482381,-12.333,-3.833)"
     style="fill:#914900;fill-opacity:1" />
  <polygon
     points="411.841,0 421,19.082 421,0 "
     id="polygon36"
     transform="matrix(0.99604664,0,0,0.99482381,-12.333,-3.833)"
     style="fill:#914900;fill-opacity:1" />
</svg>
