<svg xmlns="http://www.w3.org/2000/svg" width="91.145" height="91.145" viewBox="-4.428 -9.616 91.145 91.145" xmlns:v="https://vecta.io/nano"><path d="M69.619 80.475l-10.431-32.41h-6.45l10.69 33.214h6.297c-.009-.266-.022-.537-.106-.804zm-73.941 0l10.431-32.41h6.45L1.869 81.279h-6.297c.01-.266.022-.537.106-.804zM28.179.375l1.933-6.007c.415-1.294-.174-2.726-1.317-3.196l-1.551-.637c-1.145-.471-2.41.197-2.827 1.49L21.73.374h6.449zm9.209 0h6.451l-2.687-8.349c-.418-1.294-1.684-1.96-2.829-1.49l-1.55.637c-1.143.471-1.733 1.902-1.318 3.196zm19.787 38.806c-.125-.071-.205-.145-.205-.219 0-.567 3.029-1.13 8.226-1.31V-.303h-3.055v.62c-.001 1.379-.985 2.494-2.204 2.494H4.332c-1.219 0-2.205-1.115-2.205-2.494v-.62h-6.24v49.196h6.24v-.623c0-1.378.986-2.488 2.205-2.488h53.416zm-11.732-8.14c-.632 2.208 4.094 2.006 3.567 5.219s-3.674-1.003-5.772.803-4.2 5.819-5.249 3.01 1.364-4.615-.21-7.225-2.835.201-3.569-1.405c-.347-.758.151-1.518.837-2.402-.664.153-1.37.508-2.113 1.235-3.038 2.979 1.621 5.041-.404 8.247s-6.076-1.373-10.127-3.436-10.128 2.748-11.14-.917 8.101-3.436 6.886-5.957-11.747-3.435-10.734-8.246 14.988 4.124 15.595.917-11.608-8.702-7.898-12.598c2.836-2.979 12.962 6.183 15.594 6.183s6.886-6.642 8.102-1.374c.494 2.139-.386 3.442-1.519 4.456.581.731 1.164 1.449 1.643 1.449 1.364 0 6.614-8.026 8.084-5.416 1.922 3.416-4.408 8.228-4.094 11.038s7.559-5.018 8.082-.803-4.932 5.016-5.561 7.224zm35.139-18.52c1.3.048 1.777 1.025 1.777 1.025s1.885-1.991 1.241-4.194c-.646-2.197-2.1-5.775-2.1-5.775.256 2.132-2.175 3.107-3.013 4.775s.054 4.795.054 4.795.636-.678 2.041-.626z"/><path d="M86.485 41.286c.033-.033.059-.065.059-.099 0-.456-3.084-.849-7.552-1.036l2.666-20.394.084.077.615-4.288s-.262-.762-1.777-1.025c-1.391-.241-2.038.626-2.038.626l-.481 3.955.033-.021-2.74 20.971-2.24-.017-1.813.012-.058-27.667-1.656-5.371-1.453-.016-1.611 5.387.011 27.804c-4.086.198-6.851.573-6.851 1.005 0 .066.08.131.205.194l4.182 37.18.486.129h-2.261v1.777h.132c.722.576 5.283 1.02 10.816 1.02s10.094-.443 10.815-1.02h.132v-1.777h-2.488c.472-.096.72-.162.72-.162zM69.476 6.052l-.527-2.227-.684 2.227z"/></svg>