<svg xmlns="http://www.w3.org/2000/svg" width="91.192" height="91.192" viewBox="-4.403 -5.019 91.192 91.192" xmlns:v="https://vecta.io/nano"><path d="M-.707 85.442l.048-25.181 18.116-15.983v41.164zm39.07-36.916l.014 36.916H20.213V42.377l4.473-4.376zm2.77 36.916V48.257l18.143-16.383.021 53.568zm39.083-37.185v37.185H62.05l-.016-55.89 1.945-1.877zm2.996-9.168l-14.99-18.938a3.76 3.76 0 0 0 .163-1.045 3.82 3.82 0 0 0-7.64 0c0 .113.023.219.033.33l-21.553 19.41c-.081.003-.159.016-.239.024l-10.748-8.506c-.187-1.935-1.799-3.453-3.783-3.453-2.072 0-3.748 1.651-3.809 3.708L-.166 49.81c-.139-.016-.274-.043-.417-.043a3.82 3.82 0 1 0 0 7.64c1.886 0 3.443-1.371 3.754-3.168l21.362-19.696c.057-.001.11-.013.166-.017l10.916 8.594c.235 1.885 1.824 3.35 3.772 3.35 2.098 0 3.797-1.691 3.816-3.785l20.9-18.858 15.05 19.017c0 .014-.004.027-.004.042a3.82 3.82 0 1 0 7.64 0c.002-2.028-1.582-3.67-3.577-3.797zM49.994-4.519H2.249c-.587 0-1.063.476-1.063 1.063v27.393c0 .587.477 1.063 1.063 1.063h47.746c.586 0 1.062-.476 1.062-1.063h.001V-3.456c-.001-.587-.478-1.063-1.064-1.063zM30.53 15.696H6.394v-1.563H30.53zm0-6.375H6.394V7.758H30.53zm15.937 6.375H36.396v-1.563h10.071zm0-6.375H36.396V7.758h10.071zm.038-6.375H6.394V1.383h40.111z"/></svg>