<svg xmlns="http://www.w3.org/2000/svg" width="89.328" height="89.328" viewBox="-6.169 -5.336 89.328 89.328" xmlns:v="https://vecta.io/nano"><path d="M10.273 81.115c3.707-3.708 3.854-9.57.329-13.097s-9.385-3.375-13.092.332-3.854 9.563-.328 13.088 9.387 3.382 13.091-.323zm56.379-1.749c-3.707-3.707-3.854-9.57-.328-13.096s9.384-3.375 13.092.332 3.854 9.563.326 13.088-9.386 3.381-13.09-.324zM10.647-2.46c3.707 3.707 3.854 9.57.329 13.095s-9.385 3.375-13.093-.332S-5.971.74-2.445-2.785s9.388-3.379 13.092.325zM65.529-.711c-3.707 3.707-3.854 9.57-.328 13.095s9.385 3.376 13.092-.332 3.854-9.563.328-13.088-9.386-3.38-13.092.325zm4.629 44.259l-5.771 5.771c1.081-3.004 1.674-6.242 1.674-9.619 0-3.165-.525-6.205-1.48-9.048l4.455 4.455c3.402-4.483 4.533-10.125 3.428-15.385-.064.13-.135.244-.232.341-1.379 1.379-5.798-.791-9.856-4.852-4.063-4.062-6.231-8.477-4.853-9.856.098-.097.215-.166.34-.233-5.26-1.109-10.9.024-15.388 3.425l4.226 4.226c-2.842-.955-5.882-1.479-9.046-1.479a28.31 28.31 0 0 0-10.436 1.987l6.484-6.483c-4.486-3.399-10.127-4.531-15.388-3.424.125.067.243.136.34.233 1.379 1.379-.788 5.794-4.851 9.857s-8.479 6.23-9.858 4.851c-.097-.097-.168-.211-.232-.341-1.107 5.26.025 10.901 3.428 15.384l4.093-4.093c-1.278 3.232-1.988 6.75-1.988 10.437a28.35 28.35 0 0 0 1.744 9.818l-4.222-4.223C3.365 49.78 2.234 55.423 3.341 60.684c.063-.132.135-.246.232-.342 1.379-1.378 5.798.792 9.857 4.852s6.231 8.479 4.852 9.857c-.097.096-.215.165-.34.232 5.26 1.107 10.901-.024 15.387-3.424l-5.498-5.498c3.061 1.128 6.37 1.745 9.823 1.745 3.376 0 6.613-.592 9.617-1.673l-3.675 3.675c4.488 3.402 10.128 4.533 15.389 3.426-.125-.067-.242-.137-.34-.23-1.381-1.381.787-5.796 4.853-9.859 4.059-4.061 8.479-6.229 9.856-4.852.096.098.168.211.232.342 1.106-5.262-.025-10.903-3.428-15.387zM13.821 39.7c0-13.161 10.669-23.83 23.832-23.83S61.484 26.538 61.484 39.7s-10.67 23.831-23.831 23.831S13.821 52.86 13.821 39.7zm37.81-4.919c.675.723 1.253.505 1.287-.482l.256-7.482a1.8 1.8 0 0 0-1.732-1.856l-7.481-.255c-.989-.033-1.244.529-.57 1.251l.442.474a1.8 1.8 0 0 1-.088 2.539l-3.392 3.169a1.8 1.8 0 0 0-.087 2.538l2.453 2.626c.674.722 1.816.761 2.539.087l3.393-3.169a1.8 1.8 0 0 1 2.539.087zM31.92 53.19c.674.723.419 1.285-.569 1.252l-7.481-.254a1.8 1.8 0 0 1-1.734-1.857l.255-7.48c.034-.987.613-1.205 1.288-.483l.442.475a1.8 1.8 0 0 0 2.539.086l3.393-3.169a1.8 1.8 0 0 1 2.539.088l2.453 2.626c.675.723.635 1.865-.086 2.54l-3.393 3.168a1.8 1.8 0 0 0-.086 2.539zm.94-27.593c.722-.674.505-1.253-.482-1.287l-7.481-.257c-.989-.033-1.824.748-1.857 1.735l-.255 7.482c-.034.986.529 1.243 1.251.568l.473-.441a1.8 1.8 0 0 1 2.539.086l3.169 3.392a1.8 1.8 0 0 0 2.539.086l2.625-2.453a1.8 1.8 0 0 0 .087-2.539L32.3 28.577c-.674-.723-.636-1.864.086-2.54zm18.412 19.71c.723-.674 1.284-.418 1.252.57l-.254 7.48c-.035.986-.871 1.769-1.859 1.733l-7.48-.254c-.986-.034-1.205-.614-.482-1.289l.476-.442a1.8 1.8 0 0 0 .086-2.537l-3.169-3.394a1.8 1.8 0 0 1 .088-2.539l2.625-2.452a1.8 1.8 0 0 1 2.539.086l3.166 3.395a1.8 1.8 0 0 0 2.539.087z"/></svg>