<svg xmlns="http://www.w3.org/2000/svg" width="46.903" height="46.903" viewBox="-0.549 -0.549 46.903 46.903" xmlns:v="https://vecta.io/nano"><path d="M15.576 6.292c.704 0 1.273.575 1.289 1.287a23.69 23.69 0 0 1 2.732-.169c1.199 0 2.25.113 3.121.338 3.05.784 5.194 2.249 6.97 3.56l.838.624c1.807 1.36 4.563 3.342 6.042 3.688 1.126.264 2.985.439 4.229.534L24.937.294a2.88 2.88 0 0 0-4.071 0l-5.998 5.998zm-2.464 20.017c-.286-.371-.443-.846-.443-1.352V8.732c-.049-.03-.089-.071-.134-.107L.295 20.865a2.88 2.88 0 0 0 0 4.073l12.817 12.817zm32.397-5.444l-3.115-3.115c-.729.555-3.373 2.429-6.104 3.193-.646.181-1.446.489-2.33.571-.988.092-1.821.155-2.813.082-1.549-.117-3.223-.206-4.564-.084-2.746.249-3.969.792-5.18 1.575-1.349.872-2.647 2.407-3.269 2.875l-.1.077c-.082.147-.174.289-.288.41v15.52c0 .098-.05.193-.134.285l3.255 3.256a2.88 2.88 0 0 0 4.071 0L45.51 24.94c1.122-1.126 1.124-2.95-.001-4.075zm-12.347-3.994c-1.538-.359-4.286-2.55-5.79-3.663s-3.141-2.192-5.43-2.781-5.562.032-5.562.032v.094c-.066-.209-.189-.371-.342-.489h.441c.229 0 .414-.193.414-.432s-.185-.431-.414-.431h-1.818c-.228 0-.413.194-.413.431s.185.432.413.432h.5a1.08 1.08 0 0 0-.403.862v12.768a1.09 1.09 0 0 0 .36.826v12.96a.43.43 0 0 0 .431.432c.238 0 .431-.195.431-.432V24.605c.181-.116.325-.302.399-.538v.002c.523-.394 3.14-2.161 4.252-2.88s1.8-1.113 4.482-1.375 5.43.459 7.885.066 4.774-2.551 4.774-2.551-3.073-.098-4.61-.458z"/></svg>