<svg xmlns="http://www.w3.org/2000/svg" width="44.555" height="44.555" viewBox="-1.723 -8.594 44.555 44.555" xmlns:v="https://vecta.io/nano"><path d="M42.259-8.578H-1.007c-.355 0-.644.288-.644.644v27.269c0 .354.289.646.644.646h2.792v1.609c0 .355.289.645.644.645h36.393c.357 0 .646-.287.646-.645v-1.609h2.792c.356 0 .644-.289.644-.646V-7.934c-.002-.356-.289-.644-.645-.644zm-.594 26.57a.64.64 0 0 1-.643.644H.228c-.355 0-.645-.287-.645-.644V-6.592c0-.355.289-.644.645-.644h40.795c.355 0 .643.289.643.644v24.584zM17.076 30.748l.051-.138-.744-.237c-.033-.263-.205-.483-.459-.54-.344-.079-.704.166-.804.546s.096.75.44.829c.245.056.495-.057.656-.263l.703.224.072-.196c1.053.395 1.394 1.884-.233 2.226-1.259.267-4.687 0-3.291 2.539h.35c-1.543-2.241 1.689-1.972 3.203-2.323 1.631-.378 1.366-2.16.056-2.668zM5.279 24.916a3.14 3.14 0 0 0-1.468-.928c-1.651-.491-3.418.353-3.948 1.883s.38 3.171 2.031 3.661a3.35 3.35 0 0 0 1.775.037c-.067-.108-.459-.861.138-2.588.542-1.573 1.349-2.007 1.471-2.065z"/><path d="M14.566 31.131c-.131-.161-.21-.359-.21-.577 0-.477.371-.872.859-.956l-9.092-4.525s-.9.369-1.489 2.074c-.648 1.877-.128 2.606-.128 2.606l10.025 1.449zm8.465-29.344l5.61-2.784-5.513-3.878zm6.338-.938l-5.308 2.632 5.837 9.103 1.222-.64 2.594 4.824.757-.376-2.602-4.839 1.479-.776zm2.733 1.326l4.905-.191-2.7-4.541zm3.503 14.111l-.31-4.294 1.306-.079.334-8.377-4.638.182 1.258 8.379 1.079-.066.311 4.28zM11.034 7.158L9.589 8.564 8.445 6.472l1.954-.266zm4.391-4.524L3.599 4.401l5.45 9.463 7.644-8.997zm-6.067 7.497L7.027 5.866l7.336-1.133zM6.239 2.568l10.146-1.533-.96.933L3.599 3.734zm12.1.699l-.96 1.233-1.268-2.199.96-.933zm11.304 23.832s-.346.169-.03.364c.324.221.745.134.745.134l8.153-2.468s-.471-.11-.997-.365c-.005-.01-6.211 2.052-6.211 2.052l6.017-2.233-.839-.418zm9.519-1.725l-7.248 2.163 1.11 7.094 7.018-2.204zm-8.56.909l5.511-2.402-.084-.238-5.615 2.451z"/><path d="M30.334 27.969h0s-.378.05-.697-.061c-.454-.157-.835-.503-.708-.729.15-.268 1.154-.621 1.154-.621l-.213-.184-1.415.68 1.334 7.145s.107.357.758.824c.309.222.91.153.91.153l1.156-.368-1.13-7.178z"/></svg>