<svg xmlns="http://www.w3.org/2000/svg" width="89.035" height="89.035" xmlns:v="https://vecta.io/nano"><path d="M9.54 9.54h15.9v28.619H9.54zm38.158 44.519h19.081v22.259H47.698zm38.159 23.848a1.59 1.59 0 0 1-3.181 0V7.951h-3.18v69.956a1.59 1.59 0 0 1-3.18 0V0H0v81.086a7.96 7.96 0 0 0 7.95 7.949h73.136a7.96 7.96 0 0 0 7.949-7.949V7.951h-3.18zM6.361 7.951A1.59 1.59 0 0 1 7.95 6.36h.001 19.08a1.59 1.59 0 0 1 1.59 1.59v.001 31.797a1.59 1.59 0 0 1-1.59 1.59h0-19.08a1.59 1.59 0 0 1-1.59-1.589zM20.67 73.137H7.952a1.59 1.59 0 0 1 0-3.181h12.719a1.59 1.59 0 0 1 1.591 1.59c-.002.879-.714 1.591-1.592 1.591zm0-6.359H7.952a1.591 1.591 0 0 1 0-3.182h12.719a1.59 1.59 0 0 1 1.591 1.592c-.002.877-.714 1.59-1.592 1.59zm0-6.361H7.952a1.59 1.59 0 0 1 0-3.181h12.719a1.59 1.59 0 0 1 1.591 1.591c0 .878-.714 1.59-1.592 1.59zm0-6.358H7.952a1.59 1.59 0 0 1 0-3.181h12.719a1.59 1.59 0 0 1 1.591 1.59c-.002.878-.714 1.591-1.592 1.591zm19.079 19.078H27.031a1.59 1.59 0 0 1 0-3.181H39.75a1.59 1.59 0 0 1 1.591 1.59c-.003.879-.714 1.591-1.592 1.591zm0-6.359H27.031a1.591 1.591 0 0 1 0-3.182H39.75a1.59 1.59 0 0 1 1.591 1.592c-.003.877-.714 1.59-1.592 1.59zm0-6.361H27.031a1.59 1.59 0 0 1 0-3.181H39.75a1.59 1.59 0 0 1 1.591 1.591c0 .878-.714 1.59-1.592 1.59zm0-6.358H27.031a1.59 1.59 0 0 1 0-3.181H39.75a1.59 1.59 0 0 1 1.591 1.59c-.003.878-.714 1.591-1.592 1.591zm30.209 23.848a1.59 1.59 0 0 1-1.59 1.59h0-22.26a1.59 1.59 0 0 1-1.59-1.59h0V52.468a1.59 1.59 0 0 1 1.59-1.59h0 22.26a1.59 1.59 0 0 1 1.59 1.59h0zm-1.589-36.569H36.57a1.59 1.59 0 0 1 0-3.18h31.799a1.59 1.59 0 0 1 0 3.18zm0-6.359H36.57a1.59 1.59 0 0 1 0-3.18h31.799a1.59 1.59 0 0 1 1.59 1.59c-.001.877-.713 1.59-1.59 1.59zm0-6.359H36.57a1.59 1.59 0 1 1 0-3.18h31.799a1.59 1.59 0 1 1 0 3.18zm0-6.361H36.57a1.59 1.59 0 0 1 0-3.18h31.799a1.59 1.59 0 1 1 0 3.18zm0-6.36H36.57a1.59 1.59 0 0 1 0-3.18h31.799a1.59 1.59 0 1 1 0 3.18zm0-6.359H36.57a1.59 1.59 0 0 1-1.59-1.589 1.59 1.59 0 0 1 1.59-1.59h31.799a1.59 1.59 0 0 1 1.59 1.59 1.59 1.59 0 0 1-1.59 1.589z"/></svg>