<?xml version="1.0" encoding="utf-8"?>
<!DOCTYPE svg PUBLIC "-//W3C//DTD SVG 1.1//EN" "http://www.w3.org/Graphics/SVG/1.1/DTD/svg11.dtd" [
	<!ENTITY ns_flows "http://ns.adobe.com/Flows/1.0/">
]>
<svg version="1.1"
	 xmlns="http://www.w3.org/2000/svg" xmlns:xlink="http://www.w3.org/1999/xlink"
	 x="0px" y="0px" width="48px" height="48px" viewBox="-2.667 -3.884 48 48">
<defs>
</defs>
<path fill="#141414" d="M10.528,24.289l-1.393,5.198l-5.089,0.107c-1.521-2.821-2.384-6.049-2.384-9.479
	c0-3.317,0.807-6.445,2.236-9.199H3.9l4.531,0.831l1.985,4.503C10,17.463,9.774,18.763,9.774,20.116
	C9.774,21.583,10.04,22.991,10.528,24.289z"/>
<path fill="#141414" d="M41.315,16.379c0.23,1.21,0.352,2.459,0.352,3.737c0,1.432-0.152,2.828-0.439,4.177
	c-0.973,4.584-3.518,8.588-7.041,11.421l-0.002-0.001l-5.707-0.291l-0.807-5.042c2.338-1.371,4.166-3.519,5.129-6.087H22.104v-7.914
	h10.852H41.315L41.315,16.379z"/>
<path fill="#9C9B9B" d="M34.185,35.712l0.002,0.001c-3.428,2.755-7.782,4.404-12.522,4.404c-7.617,0-14.24-4.258-17.618-10.523
	l6.482-5.306c1.689,4.508,6.038,7.718,11.136,7.718c2.191,0,4.245-0.593,6.006-1.627L34.185,35.712z"/>
<path fill="#9C9B9B" d="M34.431,4.719l-6.479,5.305c-1.824-1.14-3.979-1.798-6.288-1.798c-5.214,0-9.644,3.356-11.249,8.026
	L3.9,10.917H3.899C7.228,4.499,13.934,0.114,21.665,0.114C26.518,0.114,30.968,1.842,34.431,4.719z"/>
</svg>
