<?xml version="1.0" encoding="utf-8"?>
<!DOCTYPE svg PUBLIC "-//W3C//DTD SVG 1.1//EN" "http://www.w3.org/Graphics/SVG/1.1/DTD/svg11.dtd" [
	<!ENTITY ns_flows "http://ns.adobe.com/Flows/1.0/">
]>
<svg version="1.1"
	 xmlns="http://www.w3.org/2000/svg" xmlns:xlink="http://www.w3.org/1999/xlink"
	 x="0px" y="0px" width="48px" height="48px" viewBox="-2.667 -3.884 48 48">
<defs>
</defs>
<path fill="#141414" d="M39.026,14.322h-3.123c-0.404,0.089-0.761,0.17-1.001,0.22c-1.061,0.285-10.759,7.808-11.402,9.654
	c-0.141,0.637,0.016,6.821,0.155,7.751c0.64,0.141,5.255,0.019,6.1,0.159l-0.101,1.909c-0.827-0.063-6.693-0.047-10.039-0.047
	c-1.7,0-7.167,0.189-8.845,0.139l0.316-1.82c0.921-0.068,4.734,0.171,5.569-0.723c0.416-0.441,0.285-6.317,0.144-7.31
	c-0.354-1.063-8.854-11.713-11.077-13.461H0V8.115h19.31v0.184c0.017,0,0.049,0.002,0.066,0.006L19.31,8.758v2.033h-5.822
	c2.595,3.795,6.316,8.377,7.903,10.577l7.776-7.047h-4.621l-0.653-2.676h16.933L40.7,11.836c0.013,0,0.04,0.002,0.06,0.002
	l-1.209,1.754c-0.012,0-0.028,0.002-0.038,0.005L39.026,14.322z M37.712,29.153l2.598,0.211l3.02-11.717
	c-0.504-0.02-5.09-0.453-5.687-0.572L37.712,29.153z M37.266,31.034l0.017,2.859l1.314,0.113l1.417,0.106l0.417-2.801l-1.496-0.073
	L37.266,31.034z"/>
</svg>
