<?xml version="1.0" encoding="utf-8"?>
<!-- Generator: Adobe Illustrator 16.0.0, SVG Export Plug-In . SVG Version: 6.00 Build 0)  -->
<!DOCTYPE svg PUBLIC "-//W3C//DTD SVG 1.1//EN" "http://www.w3.org/Graphics/SVG/1.1/DTD/svg11.dtd">
<svg version="1.1" xmlns="http://www.w3.org/2000/svg" xmlns:xlink="http://www.w3.org/1999/xlink" x="0px" y="0px" width="48px"
	 height="48px" viewBox="0 0 48 48" enable-background="new 0 0 48 48" xml:space="preserve">
<g id="Layer_1" display="none">
	<g display="inline">
		<path fill="#F89624" d="M24.948,8.897c-3.578,0-6.489,2.911-6.489,6.489c0,3.577,2.911,6.488,6.489,6.488
			c3.578,0,6.489-2.911,6.489-6.488C31.438,11.808,28.526,8.897,24.948,8.897z M24.948,20.032c-2.562,0-4.646-2.084-4.646-4.646
			c0-2.562,2.083-4.646,4.646-4.646c2.562,0,4.646,2.084,4.646,4.646C29.594,17.948,27.51,20.032,24.948,20.032z"/>
		<rect x="13.778" y="29.649" fill="#F89624" width="21.836" height="1.899"/>
		<path fill="#F89624" d="M36.846,31.256c-1.065-5.723-6.07-9.875-11.897-9.875c-5.828,0-10.832,4.153-11.897,9.875l-0.054,0.293
			h1.947l0.042-0.195c0.994-4.668,5.184-8.055,9.962-8.055s8.969,3.387,9.964,8.055l0.042,0.195H36.9L36.846,31.256z"/>
		<path fill="#C86B28" d="M28.014,9.667c-0.938-0.504-1.998-0.771-3.065-0.771c-3.578,0-6.489,2.911-6.489,6.489
			c0,3.321,2.488,6.094,5.789,6.449l0.202,0.022l0.563-1.821l-0.316-0.017c-2.465-0.133-4.395-2.167-4.395-4.633
			c0-2.562,2.084-4.646,4.646-4.646c0.846,0,1.679,0.235,2.41,0.68l0.271,0.165l0.564-1.821L28.014,9.667z"/>
		<path fill="#C86B28" d="M24.24,21.403c-5.568,0.321-10.169,4.373-11.189,9.853l-0.054,0.293h1.947l0.042-0.195
			c0.915-4.299,4.468-7.508,8.841-7.987l0.161-0.018l0.61-1.967L24.24,21.403z"/>
		<path fill="#F89624" d="M45.051,37.946l-1.566-5.527c-0.146-0.511-0.711-0.826-1.222-0.681l-5.526,1.566
			c-0.255,0.071-0.466,0.238-0.595,0.471c-0.13,0.232-0.161,0.498-0.089,0.751l0.031,0.11c0.145,0.512,0.71,0.828,1.223,0.684
			l2.838-0.805c-3.441,4.904-9.137,8.111-15.584,8.111c-6.855,0-12.861-3.625-16.211-9.063H5.912
			c3.563,6.65,10.576,11.177,18.648,11.177c7.332,0,13.78-3.739,17.573-9.408l0.903,3.187c0.12,0.422,0.512,0.719,0.953,0.719
			c0.09,0,0.181-0.014,0.271-0.038l0.107-0.031C44.893,39.02,45.199,38.471,45.051,37.946z"/>
		<path fill="#F89624" d="M24.772,2.453c-8.856,0-16.433,5.45-19.58,13.175l-1.427-2.674c-0.25-0.47-0.871-0.657-1.339-0.406
			l-0.102,0.054c-0.231,0.123-0.403,0.331-0.48,0.585c-0.077,0.254-0.051,0.522,0.074,0.755l2.706,5.067
			c0.25,0.469,0.869,0.657,1.338,0.408l5.068-2.707c0.48-0.257,0.663-0.858,0.407-1.339l-0.052-0.099
			c-0.045-0.083-0.099-0.157-0.161-0.222c-0.306-0.317-0.791-0.394-1.179-0.187l-2.892,1.543C9.99,9.462,16.809,4.567,24.772,4.567
			c8.181,0,15.153,5.162,17.845,12.405h2.234C42.071,8.541,34.135,2.453,24.772,2.453z M5.951,17.048L5.91,16.972h0.184
			L5.951,17.048z"/>
		<g>
			<path fill="#3689A6" d="M7.943,30.712l-0.72-1.996H3.85l-0.686,1.996H1.221l3.925-9.982h0.767l3.959,9.982H7.943z M5.529,23.741
				l-1.183,3.638h2.366L5.529,23.741z"/>
		</g>
		<g>
			<path fill="#56CAF5" d="M43.494,26.898h-1.523c-0.01-0.037-0.06-0.173-0.146-0.407c-0.089-0.233-0.133-0.438-0.133-0.613
				c0-0.335,0.047-0.657,0.14-0.966c0.094-0.308,0.23-0.597,0.411-0.865c0.181-0.268,0.539-0.698,1.073-1.288
				s0.802-1.077,0.802-1.46c0-0.744-0.487-1.116-1.461-1.116c-0.473,0-0.967,0.237-1.482,0.71l-0.822-1.54
				c0.687-0.537,1.588-0.806,2.704-0.806c0.861,0,1.581,0.239,2.157,0.718c0.577,0.479,0.865,1.114,0.865,1.906
				c0,0.542-0.104,1.001-0.314,1.375c-0.211,0.375-0.579,0.815-1.109,1.321c-0.527,0.505-0.873,0.925-1.032,1.259
				c-0.159,0.336-0.239,0.703-0.239,1.102C43.383,26.314,43.42,26.537,43.494,26.898z M42.816,27.983
				c0.361,0,0.668,0.128,0.922,0.383c0.252,0.255,0.379,0.563,0.379,0.926c0,0.36-0.127,0.669-0.379,0.925
				c-0.254,0.256-0.561,0.383-0.922,0.383s-0.67-0.127-0.926-0.383c-0.254-0.256-0.383-0.564-0.383-0.925
				c0-0.362,0.129-0.671,0.383-0.926C42.146,28.111,42.455,27.983,42.816,27.983z"/>
		</g>
		<polygon fill="#C86B28" points="22.167,29.649 13.778,29.649 13.778,31.549 21.583,31.549 		"/>
		<path fill="#C86B28" d="M18.483,41.635c-4.246-1.432-7.822-4.318-10.134-8.07H5.912c2.528,4.722,6.802,8.362,11.953,10.082
			L18.483,41.635z"/>
		<path fill="#C86B28" d="M24.772,2.453c-8.856,0-16.433,5.45-19.58,13.175l-1.427-2.674c-0.25-0.47-0.871-0.657-1.339-0.406
			l-0.102,0.054c-0.231,0.123-0.403,0.331-0.48,0.585c-0.077,0.254-0.051,0.522,0.074,0.755l2.706,5.067
			c0.25,0.469,0.869,0.657,1.338,0.408l5.068-2.707c0.48-0.257,0.663-0.858,0.407-1.339l-0.052-0.099
			c-0.045-0.083-0.099-0.157-0.161-0.222c-0.306-0.317-0.791-0.394-1.179-0.187l-2.892,1.543C9.99,9.462,16.809,4.567,24.772,4.567
			c1.696,0,3.34,0.225,4.905,0.642l0.621-2.021C28.537,2.71,26.686,2.453,24.772,2.453z M5.951,17.048L5.91,16.972h0.184
			L5.951,17.048z"/>
	</g>
</g>
<g id="Layer_2">
	<g>
		<path fill="#F89624" d="M23.514,6.757c-5.104,0-9.241,4.138-9.241,9.242c0,5.104,4.137,9.241,9.241,9.241
			c5.104,0,9.24-4.137,9.24-9.241C32.754,10.895,28.617,6.757,23.514,6.757z M23.514,23.243c-4.002,0-7.245-3.243-7.245-7.244
			c0-4.002,3.243-7.246,7.245-7.246c4,0,7.244,3.244,7.244,7.246C30.758,20,27.514,23.243,23.514,23.243z"/>
		<g>
			<path fill="#F89624" d="M33.836,31.318l1.567-1.431c-3.127-2.883-7.3-4.647-11.89-4.647c-6.98,0-13.005,4.074-15.835,9.973
				c0.449,0.674,0.94,1.314,1.467,1.926c2.259-5.729,7.833-9.791,14.368-9.791C27.485,27.348,31.1,28.854,33.836,31.318z"/>
			<path fill="#F89624" d="M37.004,35.275c0.394,0.704,0.736,1.441,1.018,2.208H22.469l1.928,2.079h11.794
				c1.309-1.061,2.477-2.289,3.473-3.652c-0.309-0.724-0.67-1.418-1.068-2.088L37.004,35.275z"/>
		</g>
		<path fill="#C86B28" d="M16.269,16c0-4.002,3.243-7.246,7.245-7.246c0.524,0,1.037,0.059,1.531,0.166l0.59-1.908
			c-0.683-0.16-1.39-0.254-2.121-0.254c-5.104,0-9.241,4.138-9.241,9.242c0,3.929,2.457,7.277,5.915,8.613l0.59-1.907
			C18.133,21.626,16.269,19.031,16.269,16z"/>
		<path fill="#C86B28" d="M7.681,35.216c0.448,0.671,0.938,1.312,1.464,1.923c1.983-5.03,6.521-8.771,12.021-9.61l0.684-2.21
			C15.585,25.908,10.282,29.791,7.681,35.216z"/>
		<path fill="#F89624" d="M14.664,37.483h-5.22c0.677,0.749,1.413,1.443,2.197,2.079h4.951L14.664,37.483z"/>
		<path fill="#C86B28" d="M14.664,37.483h-5.22c0.677,0.749,1.413,1.443,2.197,2.079h4.951L14.664,37.483z"/>
		<path fill="#F89624" d="M23.832,3.188c-11.677,0-21.144,9.466-21.144,21.144c0,11.677,9.467,21.144,21.144,21.144
			c11.677,0,21.144-9.467,21.144-21.144C44.976,12.654,35.509,3.188,23.832,3.188z M23.832,43.362
			c-10.509,0-19.03-8.521-19.03-19.03s8.521-19.031,19.03-19.031c10.512,0,19.031,8.521,19.031,19.031S34.344,43.362,23.832,43.362z
			"/>
		<polygon fill="#56CAF5" points="24.246,41.937 14.406,31.186 12.58,32.856 24.091,45.434 46,25.381 44.328,23.556 		"/>
		<polygon fill="#3689A6" points="18.506,35.666 14.406,31.186 12.58,32.856 17.779,38.536 		"/>
	</g>
</g>
</svg>
