<svg xmlns="http://www.w3.org/2000/svg" width="34.587" height="34.605" viewBox="27.5 28 34.587 34.605" xmlns:v="https://vecta.io/nano">
    <path d="M60.044 57.803a2 2 0 0 1-2 2h-26.25a2 2 0 0 1-2-2v-26.5a2 2 0 0 1 2-2h26.25a2 2 0 0 1 2 2z" fill="#F0B4B4"/>
    <path d="M58.94 28H30.648a3.15 3.15 0 0 0-3.148 3.148v28.309a3.15 3.15 0 0 0 3.148 3.148h28.291a3.15 3.15 0 0 0 3.148-3.148V31.149A3.15 3.15 0 0 0 58.94 28zm.596 29.895a1.68 1.68 0 0 1-1.676 1.681H31.996a1.68 1.68 0 0 1-1.68-1.681V32.519a1.68 1.68 0 0 1 1.68-1.68H57.86a1.68 1.68 0 0 1 1.676 1.68z" fill="#B72929"/>
</svg>