<?xml version="1.0" encoding="UTF-8" standalone="no"?>
<svg
   xmlns:dc="http://purl.org/dc/elements/1.1/"
   xmlns:cc="http://creativecommons.org/ns#"
   xmlns:rdf="http://www.w3.org/1999/02/22-rdf-syntax-ns#"
   xmlns:svg="http://www.w3.org/2000/svg"
   xmlns="http://www.w3.org/2000/svg"
   xmlns:sodipodi="http://sodipodi.sourceforge.net/DTD/sodipodi-0.dtd"
   xmlns:inkscape="http://www.inkscape.org/namespaces/inkscape"
   version="1.1"
   x="0px"
   y="0px"
   width="34.587002"
   height="34.603001"
   viewBox="27.26 28.1 34.587002 34.603001"
   id="svg128"
   sodipodi:docname="post-avatar.svg"
   inkscape:version="0.92.5 (2060ec1f9f, 2020-04-08)">
  <metadata
     id="metadata132">
    <rdf:RDF>
      <cc:Work
         rdf:about="">
        <dc:format>image/svg+xml</dc:format>
        <dc:type
           rdf:resource="http://purl.org/dc/dcmitype/StillImage" />
        <dc:title></dc:title>
      </cc:Work>
    </rdf:RDF>
  </metadata>
  <sodipodi:namedview
     pagecolor="#ffffff"
     bordercolor="#666666"
     borderopacity="1"
     objecttolerance="10"
     gridtolerance="10"
     guidetolerance="10"
     inkscape:pageopacity="0"
     inkscape:pageshadow="2"
     inkscape:window-width="1360"
     inkscape:window-height="937"
     id="namedview130"
     showgrid="false"
     fit-margin-top="0"
     fit-margin-left="0"
     fit-margin-right="0"
     fit-margin-bottom="0"
     inkscape:zoom="4"
     inkscape:cx="29.5"
     inkscape:cy="29.5"
     inkscape:window-x="48"
     inkscape:window-y="27"
     inkscape:window-maximized="0"
     inkscape:current-layer="svg128" />
  <defs
     id="defs122" />
  <path
     d="m 59.678,58.652 c 0,1.104 -0.896,2 -2,2 h -26.25 c -1.104,0 -2,-0.896 -2,-2 v -26.5 c 0,-1.104 0.896,-2 2,-2 h 26.25 c 1.104,0 2,0.896 2,2 z"
     id="path124"
     inkscape:connector-curvature="0"
     style="fill:#b4c6de" />
  <path
     d="M 58.701,28.1 H 30.407 c -1.738,0 -3.147,1.41 -3.147,3.148 v 28.308 c 0,1.738 1.409,3.147 3.147,3.147 h 28.292 c 1.737,0 3.148,-1.409 3.148,-3.147 V 31.249 C 61.848,29.51 60.437,28.1 58.701,28.1 Z m 0.595,29.894 c 0,0.928 -0.751,1.682 -1.676,1.682 H 31.755 c -0.929,0 -1.681,-0.754 -1.681,-1.682 V 32.619 c 0,-0.927 0.752,-1.68 1.681,-1.68 H 57.62 c 0.925,0 1.676,0.752 1.676,1.68 z"
     id="path126"
     inkscape:connector-curvature="0"
     style="fill:#2f5380" />
</svg>
