<svg xmlns="http://www.w3.org/2000/svg" width="34.587" height="34.603" viewBox="27.26 28.1 34.587 34.603" xmlns:v="https://vecta.io/nano"><path d="M59.678 58.652a2 2 0 0 1-2 2h-26.25a2 2 0 0 1-2-2v-26.5a2 2 0 0 1 2-2h26.25a2 2 0 0 1 2 2z" fill="#b4c6de"/><path d="M58.701 28.1H30.407a3.15 3.15 0 0 0-3.147 3.148v28.308a3.15 3.15 0 0 0 3.147 3.147h28.292a3.15 3.15 0 0 0 3.148-3.147V31.249a3.15 3.15 0 0 0-3.146-3.149zm.595 29.894a1.68 1.68 0 0 1-1.676 1.682H31.755a1.68 1.68 0 0 1-1.681-1.682V32.619a1.68 1.68 0 0 1 1.681-1.68H57.62a1.68 1.68 0 0 1 1.676 1.68z" fill="#2f5380"/></svg>