<?xml version="1.0" encoding="UTF-8" standalone="no"?>
<svg
   xmlns:dc="http://purl.org/dc/elements/1.1/"
   xmlns:cc="http://creativecommons.org/ns#"
   xmlns:rdf="http://www.w3.org/1999/02/22-rdf-syntax-ns#"
   xmlns:svg="http://www.w3.org/2000/svg"
   xmlns="http://www.w3.org/2000/svg"
   xmlns:sodipodi="http://sodipodi.sourceforge.net/DTD/sodipodi-0.dtd"
   xmlns:inkscape="http://www.inkscape.org/namespaces/inkscape"
   version="1.1"
   x="0px"
   y="0px"
   width="34.587002"
   height="34.605"
   viewBox="27.5 28 34.587002 34.605"
   id="svg176"
   sodipodi:docname="stats-avatar.svg"
   inkscape:version="0.92.5 (2060ec1f9f, 2020-04-08)">
  <metadata
     id="metadata180">
    <rdf:RDF>
      <cc:Work
         rdf:about="">
        <dc:format>image/svg+xml</dc:format>
        <dc:type
           rdf:resource="http://purl.org/dc/dcmitype/StillImage" />
        <dc:title></dc:title>
      </cc:Work>
    </rdf:RDF>
  </metadata>
  <sodipodi:namedview
     pagecolor="#ffffff"
     bordercolor="#666666"
     borderopacity="1"
     objecttolerance="10"
     gridtolerance="10"
     guidetolerance="10"
     inkscape:pageopacity="0"
     inkscape:pageshadow="2"
     inkscape:window-width="1707"
     inkscape:window-height="1109"
     id="namedview178"
     showgrid="false"
     fit-margin-top="0"
     fit-margin-left="0"
     fit-margin-right="0"
     fit-margin-bottom="0"
     inkscape:zoom="4"
     inkscape:cx="29.5"
     inkscape:cy="29.5"
     inkscape:window-x="48"
     inkscape:window-y="27"
     inkscape:window-maximized="0"
     inkscape:current-layer="svg176" />
  <defs
     id="defs170" />
  <path
     d="m 60.044,57.803 c 0,1.104 -0.896,2 -2,2 h -26.25 c -1.104,0 -2,-0.896 -2,-2 v -26.5 c 0,-1.104 0.896,-2 2,-2 h 26.25 c 1.104,0 2,0.896 2,2 z"
     id="path172"
     inkscape:connector-curvature="0"
     style="fill:#f2c6be" />
  <path
     d="M 58.94,28 H 30.648 C 28.909,28 27.5,29.41 27.5,31.148 v 28.309 c 0,1.738 1.409,3.148 3.148,3.148 h 28.291 c 1.737,0 3.148,-1.41 3.148,-3.148 V 31.149 C 62.088,29.41 60.677,28 58.94,28 Z m 0.596,29.895 c 0,0.927 -0.751,1.681 -1.676,1.681 H 31.996 c -0.928,0 -1.68,-0.754 -1.68,-1.681 V 32.519 c 0,-0.927 0.751,-1.68 1.68,-1.68 H 57.86 c 0.925,0 1.676,0.752 1.676,1.68 z"
     id="path174"
     inkscape:connector-curvature="0"
     style="fill:#cd3e3d" />
</svg>
