<svg xmlns="http://www.w3.org/2000/svg" xmlns:xlink="http://www.w3.org/1999/xlink" width="300" height="300" xmlns:v="https://vecta.io/nano"><style><![CDATA[.B{opacity:.4}.C{fill:#f9e6bd}.D{fill:#f9e5bd}]]></style><path fill="#fff" d="M0 0h300v300H0z"/><path d="M1.005 50.334l49.323 49.322L99.65 50.334 50.328 1.011 1.005 50.334zm88.782 0L50.328 89.793 10.87 50.334l39.458-39.459 39.459 39.459z" class="B C"/><g class="D"><path d="M20.734 50.334l29.594 29.593 29.594-29.593-29.594-29.593-29.594 29.593zm50.901 0L50.328 71.642 29.021 50.334l21.307-21.308 21.307 21.308zm-33.988.17L50.51 63.368l12.864-12.864-12.863-12.863-12.864 12.863zm19.463 0l-6.599 6.599-6.599-6.599 6.599-6.6 6.599 6.6z" class="B"/></g><path d="M101.132 50.334l49.323 49.322 49.324-49.322-49.324-49.323-49.323 49.323zm88.781 0l-39.458 39.458-39.458-39.458 39.458-39.459 39.458 39.459z" class="B C"/><g class="D"><path d="M120.861 50.334l29.594 29.593 29.593-29.593-29.593-29.594-29.594 29.594zm50.901 0l-21.307 21.307-21.308-21.307 21.308-21.308 21.307 21.308zm-33.988.17l12.863 12.864 12.864-12.864-12.864-12.864-12.863 12.864zm19.463 0l-6.599 6.599-6.599-6.599 6.599-6.6 6.599 6.6z" class="B"/></g><path d="M51.327 100.904l49.323 49.322 49.322-49.322-49.322-49.323-49.323 49.323zm88.781 0l-39.458 39.458-39.459-39.458 39.459-39.459 39.458 39.459z" class="B C"/><g class="D"><path d="M71.056 100.904l29.594 29.593 29.592-29.593L100.65 71.31l-29.594 29.594zm50.901 0l-21.307 21.307-21.308-21.307 21.308-21.309 21.307 21.309zm-33.988.17l12.864 12.864 12.863-12.864-12.863-12.864-12.864 12.864zm19.463 0l-6.599 6.599-6.599-6.599 6.599-6.6 6.599 6.6z" class="B"/></g><path d="M151.455 100.904l49.322 49.322 49.323-49.322-49.323-49.323-49.322 49.323zm88.78 0l-39.458 39.458-39.458-39.458 39.458-39.459 39.458 39.459z" class="B C"/><g class="D"><path d="M171.183 100.904l29.594 29.593 29.594-29.593-29.594-29.594-29.594 29.594zm50.902 0l-21.309 21.307-21.308-21.307 21.308-21.309 21.309 21.309zm-33.989.17l12.864 12.864 12.863-12.864-12.863-12.865-12.864 12.865zm19.463 0l-6.599 6.599-6.6-6.599 6.6-6.6 6.599 6.6z" class="B"/></g><path d="M51.327 202.042l49.323 49.322 49.322-49.322-49.322-49.323-49.323 49.323zm88.781 0L100.65 241.5l-39.459-39.458 39.459-39.46 39.458 39.46z" class="B C"/><g class="D"><path d="M71.056 202.042l29.594 29.594 29.592-29.594-29.592-29.594-29.594 29.594zm50.901 0L100.65 223.35l-21.308-21.308 21.308-21.309 21.307 21.309zm-33.988.17l12.864 12.863 12.863-12.863-12.863-12.863-12.864 12.863zm19.463 0l-6.599 6.6-6.599-6.6 6.599-6.6 6.599 6.6z" class="B"/></g><path d="M151.454 202.042l49.322 49.322 49.323-49.322-49.323-49.323-49.322 49.323zm88.78 0L200.776 241.5l-39.458-39.458 39.458-39.46 39.458 39.46z" class="B C"/><g class="D"><path d="M171.182 202.042l29.594 29.594 29.594-29.594-29.594-29.594-29.594 29.594zm50.902 0l-21.309 21.308-21.308-21.308 21.308-21.309 21.309 21.309zm-33.989.17l12.864 12.863 12.863-12.863-12.863-12.863-12.864 12.863zm19.463 0l-6.599 6.6-6.6-6.6 6.6-6.6 6.599 6.6z" class="B"/></g><path d="M201.568 50.671l49.322 49.322 49.323-49.322L250.89 1.348l-49.322 49.323zm88.78 0L250.89 90.13l-39.458-39.458 39.458-39.459 39.458 39.458z" class="B C"/><g class="D"><path d="M221.296 50.671l29.594 29.593 29.593-29.593-29.593-29.594-29.594 29.594zm50.901 0L250.89 71.979l-21.308-21.307 21.308-21.308 21.307 21.307zm-33.988.17l12.863 12.863 12.863-12.863-12.863-12.864-12.863 12.864zm19.462 0l-6.599 6.599-6.599-6.599 6.599-6.6 6.599 6.6z" class="B"/></g><path d="M1.005 151.473l49.323 49.323 49.323-49.323-49.323-49.323-49.323 49.323zm88.782 0l-39.459 39.458-39.458-39.458 39.458-39.459 39.459 39.459z" class="B C"/><g class="D"><path d="M20.734 151.473l29.594 29.594 29.594-29.594-29.594-29.594-29.594 29.594zm50.901 0l-21.308 21.309-21.307-21.309 21.307-21.308 21.308 21.308z" class="B"/><use xlink:href="#B" class="B"/></g><path d="M101.132 151.473l49.323 49.323 49.324-49.323-49.324-49.323-49.323 49.323zm88.781 0l-39.458 39.458-39.458-39.458 39.458-39.459 39.458 39.459z" class="B C"/><use xlink:href="#C" fill="#becef9" class="B"/><use xlink:href="#B" x="100.127" class="B D"/><path d="M201.568 151.81l49.322 49.323 49.323-49.323-49.323-49.323-49.322 49.323zm88.78 0l-39.458 39.458-39.458-39.458 39.458-39.459 39.458 39.459z" class="B C"/><g class="D"><use xlink:href="#C" x="100.435" y="0.337" class="B"/><path d="M238.209 151.979l12.863 12.863 12.863-12.863-12.863-12.864-12.863 12.864zm19.462 0l-6.599 6.6-6.599-6.6 6.599-6.6 6.599 6.6z" class="B"/></g><path d="M1.005 252.61l49.323 49.323L99.65 252.61l-49.323-49.322L1.005 252.61zm88.782 0l-39.459 39.459L10.87 252.61l39.458-39.458 39.459 39.458z" class="B C"/><g class="D"><path d="M20.734 252.61l29.594 29.594 29.594-29.594-29.594-29.594-29.594 29.594zm50.901 0l-21.308 21.309-21.306-21.309 21.307-21.308 21.307 21.308z" class="B"/><use xlink:href="#D" class="B"/></g><path d="M101.132 252.61l49.323 49.323 49.324-49.323-49.324-49.322-49.323 49.322zm88.781 0l-39.458 39.459-39.458-39.459 39.458-39.458 39.458 39.458z" class="B C"/><g class="D"><use xlink:href="#C" y="101.137" class="B"/><use xlink:href="#D" x="100.127" class="B"/></g><path d="M201.568 252.947l49.322 49.323 49.323-49.323-49.323-49.322-49.322 49.322zm88.78 0l-39.458 39.459-39.458-39.459 39.458-39.458 39.458 39.458z" class="B C"/><g class="D"><use xlink:href="#C" x="100.435" y="101.474" class="B"/><path d="M238.209 253.117l12.863 12.863 12.863-12.863-12.863-12.863-12.863 12.863zm19.462 0l-6.599 6.6-6.599-6.6 6.599-6.6 6.599 6.6zM300 108.009l-4.701-6.598 4.701-6.6v-6.265l-10.965 12.865L300 114.274zm0 14.539l-19.592-21.307L300 79.932v-8.286l-27.878 29.595L300 130.834z" class="B"/></g><path d="M300 140.699l-37.744-39.458L300 61.781v-9.864l-47.608 49.324L300 150.563z" class="B C"/><g class="D"><path d="M300 208.812l-6.306-6.6 6.306-6.6v-6.263l-12.571 12.863L300 215.075zm0 14.538l-21.198-21.308L300 180.733v-8.285l-29.484 29.594L300 231.636z" class="B"/></g><path d="M300 241.5l-39.348-39.458L300 162.582v-9.863l-49.213 49.323L300 251.364z" class="B C"/><g class="D"><path d="M0 195.272l6.599 6.6-6.599 6.6v6.263l12.863-12.863L0 189.009zm.183-14.539l21.308 21.309L0 223.35v8.286l29.777-29.594L.183 172.448z" class="B"/></g><path d="M.183 162.582l39.458 39.46L0 241.5v9.864l49.505-49.322L.183 152.719z" class="B C"/><g class="D"><path d="M0 94.133l6.599 6.6-6.599 6.6v6.264l12.863-12.864L0 87.87zm.183-14.538l21.308 21.308L0 122.211v8.286l29.777-29.594L.183 71.31z" class="B"/></g><path d="M.183 61.444l39.458 39.459L0 140.362v9.864l49.505-49.323L.183 51.581z" class="B C"/><g class="D"><path d="M194.007 300l6.6-3.185 6.601 3.185h6.263l-12.864-9.448L187.744 300zm-14.539 0l21.309-18.076L222.086 300h8.285l-29.594-26.361L171.182 300z" class="B"/></g><path d="M161.318 300l39.459-36.227L240.235 300h9.865l-49.323-46.092L151.454 300z" class="B C"/><g class="D"><path d="M93.88 300l6.6-3.185 6.6 3.185h6.264l-12.864-9.448L87.616 300zm-14.539 0l21.309-18.076L121.958 300h8.285l-29.593-26.361L71.055 300z" class="B"/></g><path d="M61.19 300l39.46-36.227L140.108 300h9.865l-49.323-46.092L51.327 300z" class="B C"/><g class="D"><path d="M93.88 0l6.6 6.6 6.6-6.6h6.264L100.48 12.863 87.616 0zM79.341 0l21.309 21.492L121.958 0h8.285L100.65 29.777 71.055 0z" class="B"/></g><path d="M61.19 0l39.46 39.641L140.108 0h9.865L100.65 49.506 51.327 0z" class="B C"/><g class="D"><path d="M194.007 0l6.6 6.6 6.601-6.6h6.263l-12.864 12.863L187.744 0zm-14.539 0l21.309 21.492L222.086 0h8.285l-29.594 29.777L171.182 0z" class="B"/></g><path d="M161.318 0l39.459 39.641L240.235 0h9.865l-49.323 49.506L151.454 0z" class="B C"/><g class="D"><path d="M300 7.727L294.2 0h-6.265L300 13.992zm0 15.003L279.307 0h-8.285L300 31.017z" class="B"/></g><path d="M300 40.706L261.158 0h-9.866L300 50.57z" class="B C"/><g class="D"><path d="M300 296.462L293.694 300h-6.265L300 290.198zm0-14.538L278.802 300h-8.286L300 273.638z" class="B"/></g><path d="M300 263.772L260.652 300h-9.865L300 253.908z" class="B C"/><g class="D"><path d="M0 6.769L6.599 0h6.264L0 13.033zm.183 14.538L21.491 0h8.286L0 29.593z" class="B"/></g><path d="M.183 39.458L39.641 0h9.864L0 49.322z" class="B C"/><g class="D"><path d="M.168 296.646L6.767 300h6.265L0 290.382zm.183-14.539L21.659 300h8.286L0 273.821z" class="B"/></g><path d="M.351 263.956L39.81 300h9.864L0 254.093z" class="B C"/><defs ><path id="B" d="M37.647 151.643l12.863 12.863 12.864-12.863-12.864-12.864-12.863 12.864zm19.463 0l-6.599 6.6-6.599-6.6 6.599-6.6 6.599 6.6z"/><path id="C" d="M120.861 151.473l29.594 29.594 29.593-29.594-29.593-29.594-29.594 29.594zm50.901 0l-21.307 21.309-21.308-21.309 21.308-21.308 21.307 21.308z"/><path id="D" d="M37.647 252.78l12.863 12.863 12.864-12.863-12.864-12.863-12.863 12.863zm19.463 0l-6.599 6.6-6.599-6.6 6.599-6.6 6.599 6.6z"/></defs></svg>